<svg width="134" height="88" viewBox="0 0 134 88" fill="none" xmlns="http://www.w3.org/2000/svg">
<path d="M70.9085 1.11015C71.0038 2.52115 70.7775 3.45405 69.9203 5.23822C69.5631 5.97287 69.2535 6.60258 69.2178 6.6259C69.194 6.64922 68.9677 6.52095 68.7177 6.33437C68.17 5.91457 66.9912 5.23822 66.4197 5.01665C66.1935 4.92337 65.6577 4.65516 65.2409 4.39861C64.8242 4.15372 64.4551 3.97881 64.4194 4.01379C64.3479 4.09542 64.7051 4.91171 65.0742 5.50642C65.3243 5.91457 65.4195 6.18278 65.3005 6.18278C65.2766 6.18278 64.7528 6.07782 64.1336 5.96121C62.8953 5.70467 62.0142 5.40147 61.3355 4.98167C60.8593 4.69014 60.0615 3.88552 59.9663 3.60565C59.8234 3.20917 59.7638 3.64063 59.8829 4.21203C60.0853 5.15659 60.7402 6.38102 61.4784 7.18564L62.1333 7.90864L61.3236 7.96694C60.8831 8.00193 60.4306 8.04857 60.2996 8.0719C60.1329 8.09521 60.0377 7.9786 59.871 7.52382C59.7638 7.1973 59.3709 6.46265 59.0137 5.89125C57.4897 3.43073 57.0253 1.94975 57.3587 0.550407C57.4897 0.0256538 57.3468 -0.00933075 56.5728 0.363827C55.4893 0.876923 54.3939 2.46285 53.5485 4.72512C53.1794 5.72799 53.1675 5.85626 53.1556 7.52382C53.1437 9.38961 53.2509 10.066 53.7629 11.1854C53.9176 11.5353 54.1796 12.0017 54.3463 12.2116L54.632 12.5848L54.3344 12.783C53.62 13.2378 52.1435 13.3661 51.4768 13.0279L51.2386 12.9113L51.4768 13.1795C51.8221 13.5643 52.7984 13.9841 53.5843 14.0658C53.9653 14.1124 54.2391 14.1824 54.2034 14.2407C54.1796 14.2873 53.7033 14.6255 53.1675 14.9753C52.0483 15.6983 50.6433 16.2114 49.7622 16.2114C49.4288 16.2114 49.155 16.2581 49.155 16.3047C49.155 16.3514 49.4407 16.503 49.786 16.6312C50.6195 16.9344 53.4533 16.9344 54.2629 16.6312C54.5487 16.5263 54.8106 16.4563 54.8345 16.4913C54.8583 16.5146 54.6916 16.9111 54.4534 17.3892C54.2272 17.8557 54.0367 18.3338 54.0367 18.4504C54.0367 18.567 53.7033 18.8818 53.2628 19.185C52.2983 19.8614 52.0483 20.1762 51.953 20.8176C51.8816 21.2607 51.834 21.3307 51.5006 21.389C51.2982 21.4356 50.7386 21.6572 50.2504 21.8904C49.2264 22.3802 48.4644 23.1615 48 24.1644C47.8214 24.5375 47.6428 24.8407 47.5952 24.8407C47.5476 24.8407 47.4166 24.9224 47.3213 25.0273C47.0832 25.2605 47.0594 26.2751 47.2975 26.4616C47.3809 26.5316 47.488 26.9048 47.5237 27.2896C47.6071 28.2108 48.2262 29.4819 48.9645 30.2982C49.5598 30.9279 50.6314 31.5926 51.5958 31.9191L52.1554 32.1057L52.0721 33.0269C51.9649 34.2513 51.7506 35.0443 51.2505 36.0122C50.8576 36.7818 50.1432 37.5515 49.8336 37.5515C49.7503 37.5515 49.4169 37.7147 49.1073 37.9013C48.7025 38.1578 48.4763 38.4027 48.2977 38.7992C48.0834 39.289 48.0595 39.4639 48.1429 40.7466C48.1905 41.5279 48.2262 42.6591 48.2143 43.2771C48.2024 44.3266 48.2262 44.4549 48.5596 45.0729C48.9764 45.8542 49.0002 46.0408 48.6787 46.6472C48.381 47.2186 48.381 47.4985 48.6906 48.1632C48.9287 48.6879 49.9051 49.6791 50.1789 49.6791C50.2623 49.6791 50.4647 49.9706 50.6433 50.3321C51.2982 51.6732 52.4412 52.4428 54.1915 52.7227C56.7038 53.1075 59.2757 52.4661 60.5021 51.1484C60.9426 50.682 61.1093 50.3555 61.5498 49.1194C61.9428 48.0232 62.2404 47.4868 62.6929 47.0437C63.0501 46.6938 63.2525 46.6822 63.1573 47.0204C63.1096 47.172 63.0263 48.2564 62.9667 49.4459C62.9072 50.6353 62.8239 51.8831 62.7881 52.2096C62.7524 52.5478 62.7048 53.1075 62.6572 53.4574L62.5976 54.0754L63.2287 54.1454C63.574 54.192 64.1217 54.3553 64.4432 54.5069C64.7766 54.6701 65.0861 54.7634 65.1457 54.7051C65.1933 54.6585 65.5505 53.7022 65.9434 52.5828C66.7055 50.3905 66.8245 50.3438 66.3721 52.3962C65.8482 54.7634 65.8839 55.1482 66.5268 53.9005C66.8007 53.3641 68.2652 49.4459 68.6224 48.3031C68.6701 48.1515 68.7296 48.0582 68.7534 48.0815C68.8248 48.1515 68.289 50.2505 67.6104 52.6177C67.0865 54.4835 67.0865 54.4602 67.2413 54.4602C67.5389 54.4602 68.8487 51.2417 70.2656 46.997C70.468 46.3907 70.6466 45.9709 70.6704 46.0758C70.718 46.2624 70.0155 48.9911 69.4559 50.7869C68.8725 52.6644 68.5629 53.7022 68.5748 53.8189C68.5867 54.297 71.1109 48.2914 72.0278 45.5977C72.3373 44.6648 72.5755 44.1167 72.5397 44.3733C72.4326 45.0496 71.8491 47.3935 71.3133 49.2127C70.8371 50.8336 70.6347 51.6499 70.7418 51.5449C70.8133 51.4633 72.7422 46.7055 73.3494 45.0846C73.6113 44.3733 73.9804 43.1955 74.171 42.4608C74.3615 41.7262 74.552 41.0965 74.5758 41.0615C74.8973 40.7583 73.8257 45.586 72.9565 48.3847C72.8255 48.7929 72.7541 49.1544 72.7779 49.1777C72.8017 49.2127 72.8612 49.1077 72.9088 48.9561C72.9565 48.8045 73.3613 47.7783 73.8138 46.6705C74.7901 44.2567 76.3023 39.2656 76.3023 38.461C76.3023 38.3444 76.3618 38.2511 76.4213 38.2511C76.5642 38.2511 76.5761 38.1695 76.3618 39.7088C76.2546 40.4084 76.0998 41.6445 76.0046 42.4492C75.8974 43.2538 75.7426 44.2217 75.6474 44.5948C75.5402 44.968 75.4926 45.3062 75.5164 45.3295C75.6593 45.4811 76.3499 43.1372 76.969 40.4084L77.2548 39.1257L77.1953 40.7C77.1595 41.5629 77.0881 42.694 77.0167 43.2071C76.9571 43.7202 76.85 44.7114 76.7785 45.4228C76.6356 46.9504 76.2665 48.8512 75.8855 49.9706C75.5164 51.0668 75.0997 52.6527 75.2307 52.5245C75.564 52.163 76.8857 49.6791 77.2191 48.7579C77.8144 47.137 78.4455 43.8019 78.4455 42.2859C78.4455 42.0294 78.4812 41.8661 78.5169 41.9011C78.7312 42.111 78.374 45.9942 78.0406 47.2536C77.7192 48.4547 77.3381 49.4109 76.6356 50.8103C75.7546 52.5828 75.1473 53.5623 74.5877 54.157C73.9566 54.8334 74.0638 54.915 74.7901 54.3203C75.6117 53.6206 76.9928 51.9647 77.612 50.9035C78.2669 49.7724 79.1122 47.5684 79.3742 46.2857L79.5885 45.2595L80.3267 45.9475C80.7316 46.3323 81.0649 46.6938 81.0649 46.7638C81.0649 46.8338 80.9102 46.9154 80.7197 46.9504C80.3744 47.0204 80.2315 47.2536 80.2315 47.7783C80.2315 48.3731 82.208 51.8947 83.4225 53.4457C83.7082 53.8189 83.9226 54.1454 83.8868 54.1803C83.863 54.2153 83.4582 53.8422 83.0057 53.3641C82.2675 52.5944 80.3267 49.7957 80.0648 49.1544C79.9933 48.9678 79.8624 49.1544 79.3742 50.1456C79.0527 50.8219 78.7312 51.5099 78.6836 51.6965C78.5526 52.093 78.8979 53.1308 79.4575 54.0521C79.9338 54.8101 81.0411 56.2094 81.184 56.2094C81.2316 56.2094 81.0411 55.7313 80.7435 55.1482C79.9933 53.6206 80.1481 53.6439 81.0769 55.1716C81.2674 55.4981 81.7913 56.1977 82.2437 56.7108C83.863 58.6116 84.1964 58.6932 82.9938 56.8974C82.5414 56.2327 82.1127 55.568 82.0294 55.4164C81.8865 55.1482 81.5412 54.1337 81.5412 53.9588C81.5412 53.9121 81.9103 54.157 82.3747 54.5185C82.8271 54.88 83.6249 55.3815 84.125 55.6497C84.637 55.9179 85.6967 56.5126 86.4825 56.9674C87.2683 57.4338 88.209 57.9469 88.5662 58.1218L89.221 58.4367L87.8994 57.1773C87.1731 56.4893 86.3039 55.603 85.9824 55.2182C85.0061 54.0987 83.9106 52.2562 83.5415 51.1368C83.3868 50.6353 82.9819 48.6996 83.0296 48.6529C83.0534 48.6296 83.351 48.6646 83.7082 48.7346C85.8872 49.1544 86.1848 49.236 86.292 49.4226C86.3515 49.5275 86.4349 49.5858 86.4825 49.5508C86.6016 49.4226 86.03 48.5247 85.3156 47.7317C84.4703 46.7988 84.4107 46.6705 83.8749 44.6065C83.5058 43.2305 83.351 42.3442 83.0296 39.9653C82.9938 39.7321 83.0176 39.5339 83.0772 39.5339C83.1367 39.5339 83.2201 39.7321 83.2677 39.9653C83.4701 41.0148 84.7084 44.4082 84.8394 44.2683C84.8751 44.245 84.7084 43.3821 84.4703 42.3675C84.0297 40.4318 83.8273 38.9858 84.0178 39.3006C84.0892 39.3939 84.3869 40.2802 84.6965 41.2714C85.0061 42.2626 85.4109 43.3937 85.5895 43.7785C85.7681 44.175 85.9824 44.6998 86.0658 44.9563C86.4349 46.0991 88.1613 49.5275 88.3042 49.3992C88.328 49.3643 88.1852 48.9095 87.9708 48.3731C87.3279 46.7405 86.4349 44.1983 86.0658 42.9739C85.7324 41.8311 85.3156 39.8837 85.3871 39.8137C85.4109 39.7904 85.5538 40.1985 85.7086 40.735C86.2086 42.4725 87.4588 45.8659 88.209 47.5218C89.0782 49.4576 89.2329 49.8774 88.9829 49.6791C88.721 49.4692 88.7567 49.6441 89.2091 50.6703C89.8045 52.0813 91.4714 55.2765 91.6024 55.2765C91.7215 55.2765 91.3047 54.2037 90.5308 52.4778C89.5544 50.3088 89.3639 49.7607 89.4235 49.2826C89.4473 49.0144 89.5782 49.2127 90.1021 50.3905C90.4593 51.1834 91.0785 52.5478 91.4833 53.4107C91.8881 54.2736 92.3763 55.3465 92.5549 55.8013C93.055 57.0373 93.9242 58.7515 93.9242 58.4833C93.9123 57.772 91.8405 52.1163 90.9475 50.3788C90.5308 49.5742 90.6379 49.5392 91.1856 50.3205C91.6024 50.9035 92.3644 52.6177 93.4955 55.4514C93.9956 56.7225 94.5672 57.9119 95.0791 58.7399C95.5197 59.4629 95.9007 60.0226 95.9245 59.9993C95.9602 59.976 95.8174 59.5095 95.6149 58.9848C95.3054 58.1801 94.5433 55.7546 94.329 54.8684C94.2933 54.7401 94.4481 54.9733 94.6624 55.3931C94.8886 55.8129 95.2577 56.4426 95.484 56.7925C95.7221 57.1423 96.1865 57.8536 96.5199 58.3667C97.1628 59.3346 97.6986 60.011 97.782 59.9293C97.8058 59.906 97.6748 59.5678 97.4843 59.183C97.1033 58.425 96.3055 55.6963 96.0198 54.1337C95.9126 53.5973 95.7935 52.3612 95.7578 51.3933C95.6626 49.236 95.8531 47.8833 96.5556 45.8426C96.8056 45.0963 97.0199 44.4782 97.0199 44.4666C97.0199 44.3733 97.4605 44.4666 98.1154 44.6765C99.5561 45.1546 101.259 46.0875 102.509 47.067C103.235 47.6384 103.33 47.755 103.64 48.583C103.819 49.0844 104.14 49.7024 104.354 49.9706C104.557 50.2389 104.759 50.6353 104.807 50.8569C104.878 51.265 104.89 51.265 105.509 51.2534H106.129L106.236 51.8015C106.319 52.2329 106.402 52.3612 106.569 52.3612C106.688 52.3612 106.843 52.2446 106.914 52.093C107.033 51.8364 107.105 51.8248 108.367 51.8131C109.105 51.8015 109.891 51.7781 110.117 51.7548C110.51 51.7198 110.534 51.7432 110.534 52.0697C110.534 52.5128 110.856 52.4895 111.272 52.0114C111.487 51.7548 111.737 51.6382 112.249 51.5333C113.201 51.3583 114.023 50.8802 114.451 50.2855C114.951 49.5858 114.963 48.6179 114.487 47.72C114.285 47.3352 114.189 47.0087 114.225 46.8454C114.332 46.4723 114.154 46.0991 113.451 45.2012C113.118 44.7581 112.868 44.3733 112.903 44.3383C112.939 44.3033 113.201 44.3499 113.475 44.4316C113.761 44.5015 114.392 44.5948 114.88 44.6298C115.964 44.6998 116.19 44.5715 116.916 43.4287C117.309 42.8223 117.464 42.6824 117.714 42.6824C118.119 42.6824 119.155 42.2043 119.428 41.9127C119.702 41.6096 120 40.8982 120 40.5367C120 40.3851 119.833 39.9187 119.631 39.4872L119.262 38.7292L119.583 37.9479C119.952 37.0617 119.917 36.5836 119.476 36.0705L119.202 35.744L119.416 35.1026C119.809 33.9015 119.678 32.6887 119.059 32.0357C118.631 31.5809 118.464 31.5109 117.571 31.3827C117.035 31.3127 116.642 31.1728 116.285 30.9279C115.999 30.7413 115.559 30.4964 115.297 30.3798C114.737 30.1233 112.344 28.8172 111.629 28.3624C109.986 27.3362 107.867 25.4354 107.605 24.7591C107.534 24.5725 107.534 24.316 107.617 24.0361C107.807 23.3481 107.76 22.042 107.522 21.5756C107.414 21.354 106.879 20.8059 106.343 20.3512L105.367 19.5349L106.105 19.3833C107.998 19.0101 109.891 17.6574 110.605 16.1648C110.963 15.4301 111.034 15.0453 110.832 15.0453C110.772 15.0453 110.713 15.0919 110.713 15.1502C110.713 15.2086 110.498 15.4651 110.248 15.7216C109.355 16.6196 107.724 17.3542 106.188 17.5525L105.533 17.6341L106.271 17.191C107.153 16.6779 108.141 15.7683 108.248 15.4068C108.331 15.0919 108.248 15.1036 107.081 15.5117C106.176 15.8383 104.259 15.9899 104.485 15.7333C104.569 15.64 104.902 15.4884 105.224 15.4068C106.474 15.0919 107.819 14.0541 108.391 12.9579C108.677 12.3865 109.01 11.0105 108.879 10.8822C108.843 10.8473 108.486 11.1621 108.093 11.5819C107.188 12.5381 106.51 12.8297 105.14 12.8297C104.64 12.8297 104.14 12.7714 104.045 12.7131C103.914 12.6314 103.997 12.5964 104.354 12.5964C105.795 12.5964 106.498 10.3342 106.021 7.29059C105.664 5.0633 105.152 3.7106 104.557 3.48904C104.021 3.29079 103.854 3.44239 103.616 4.35197C103.271 5.66968 102.461 7.08069 101.259 8.45671L100.187 9.68114H98.3535H96.5079L97.0914 9.22635C97.8177 8.66661 98.4607 7.64043 98.544 6.94075C98.5678 6.64922 98.5559 6.416 98.4964 6.416C98.4487 6.416 98.2344 6.5676 98.032 6.76584C97.5081 7.26727 95.865 7.80368 93.2931 8.31678C93.1503 8.35176 92.543 6.27607 92.3882 5.19157C92.3168 4.73679 92.2334 3.81555 92.1858 3.12754C92.1263 2.03138 92.0906 1.86813 91.8881 1.80982C91.2809 1.61158 89.3996 3.3491 88.0304 5.36649C86.8516 7.10401 86.3634 8.39841 86.292 9.97267C86.2444 11.0105 86.2206 11.0572 85.6728 11.1388C85.399 11.1854 84.625 11.477 83.9464 11.7918C82.8629 12.3049 82.5771 12.5148 81.3983 13.6226C80.1243 14.8354 79.0408 16.0715 79.0408 16.3164C79.0408 16.3863 79.1361 16.6196 79.2432 16.8528L79.4456 17.2726L79.6719 17.0044C79.8624 16.7712 79.8862 16.7712 79.8028 16.9694C79.529 17.6807 79.7909 19.4649 80.3744 20.9575C80.7911 21.9837 81.9937 24.0711 82.589 24.7591C82.8748 25.0856 83.2677 25.5521 83.4582 25.7736C83.863 26.2401 83.8868 26.4733 83.5654 26.7648C83.3034 26.9864 83.0534 27.0097 82.2318 26.8465C81.5531 26.7182 81.565 26.6599 81.9103 28.2225C82.077 28.9921 82.1723 29.995 82.2199 31.4876C82.2794 33.5283 82.3032 33.6799 82.6247 34.3796C83.0296 35.2659 83.4463 35.8139 84.5655 36.9334C85.5181 37.9013 85.4347 38.0179 84.1964 37.4465C82.9224 36.8518 81.8865 35.7206 81.2912 34.263C81.0769 33.7382 81.0411 33.4234 81.053 32.129C81.0769 29.1321 80.7197 27.138 79.8743 25.4938C79.6123 24.9923 79.398 24.5609 79.398 24.5492C79.398 24.5259 79.7076 24.7124 80.0886 24.9573C80.8506 25.4588 81.4698 25.657 82.2556 25.657H82.7914L82.1961 25.2605C80.5172 24.141 79.0646 21.6455 78.5169 18.9052C78.3502 18.1239 78.1002 17.1327 77.9573 16.7012C77.612 15.675 76.7071 13.9258 76.4809 13.8325C76.1475 13.7159 76.3023 13.5527 76.8142 13.471C77.9573 13.2961 79.3027 12.4099 79.7552 11.5353C80.1005 10.8822 80.0648 10.6257 79.6957 11.0572C79.0884 11.7568 77.8739 12.095 76.7071 11.8851C75.695 11.6985 75.314 11.477 75.3973 11.1388C75.6474 10.1476 75.7188 8.99313 75.5879 7.54714C75.4212 5.62304 75.3259 5.21489 74.6949 3.88552C73.8018 2.00806 72.7422 0.725327 71.7063 0.235554C70.8609 -0.172588 70.8371 -0.149265 70.9085 1.11015ZM73.0755 3.29079C73.909 4.51522 74.5163 6.74252 74.5163 8.58499C74.5163 9.80941 74.3615 10.5907 73.7899 12.3282C73.3018 13.8209 73.2303 14.4506 73.4685 15.2202C73.6113 15.675 73.6113 15.6867 73.6471 15.3368C73.778 14.0541 73.8138 14.1007 74.3496 16.1531C74.6234 17.2376 74.8377 18.1472 74.8258 18.1588C74.8139 18.1705 74.5996 17.7973 74.3377 17.3192C74.0876 16.8411 73.8495 16.468 73.8257 16.4913C73.7304 16.5962 74.0519 17.3426 74.4329 17.914C74.8377 18.5087 75.2307 19.36 75.2307 19.6282C75.2307 19.6981 75.1116 19.5815 74.9806 19.36C74.6353 18.8002 73.5637 17.7041 73.5637 17.9023C73.5637 17.9956 73.8376 18.567 74.171 19.185C74.671 20.0946 75.8974 23.1965 75.7903 23.2665C75.7784 23.2781 75.2902 23.4764 74.6949 23.6979C74.1114 23.9311 73.3256 24.246 72.9565 24.4093L72.2778 24.7124L71.8491 24.0244C71.611 23.6513 71.1109 23.0682 70.7299 22.7417C70.3608 22.4035 70.1584 22.1703 70.2894 22.2169C70.4203 22.2636 70.7061 22.3219 70.9204 22.3569C71.6467 22.4735 71.3014 22.182 70.206 21.7388C69.182 21.3307 68.9915 21.2957 67.6699 21.2491C66.0506 21.1908 65.2647 21.319 64.2527 21.8205C63.4192 22.2286 62.2166 23.3014 61.8118 24.0128C61.1569 25.1556 61.2641 25.0739 60.5735 24.8757C60.1449 24.7474 59.609 24.7124 58.7875 24.7474L57.6206 24.7941L57.4301 24.3043C57.0015 23.2082 55.3464 21.8438 53.9176 21.389C53.5604 21.284 53.239 21.1791 53.2151 21.1558C53.0485 21.0158 55.0012 19.4649 57.573 17.6924C58.1088 17.3309 58.7637 16.8411 59.0494 16.6196C59.3233 16.3863 59.5733 16.2347 59.6091 16.2581C59.6329 16.293 59.5495 16.5846 59.4066 16.9111C59.2638 17.2376 58.9899 18.0772 58.7994 18.7886C58.3946 20.3278 57.9421 21.1441 57.2396 21.6805C56.9539 21.8904 56.7038 22.112 56.68 22.1703C56.6086 22.3569 57.6802 22.2753 58.3588 22.0537C58.728 21.9254 59.5733 21.5523 60.252 21.2141C61.3355 20.666 61.6451 20.4328 62.9072 19.22C63.6811 18.4737 64.3479 17.879 64.3836 17.914C64.4075 17.9373 64.1455 18.3921 63.7764 18.9285C63.4192 19.4532 63.0263 20.0246 62.9191 20.1996C62.7286 20.5261 62.7286 20.5261 63.0144 20.5261C63.3835 20.5261 65.2886 19.0101 66.0863 18.0889C66.3959 17.7274 66.8841 17.051 67.1579 16.5846C67.6699 15.745 67.8485 15.5701 67.8485 15.9432C67.8485 16.3047 68.4557 18.0072 68.8963 18.8935C69.2416 19.5932 69.4678 19.873 69.9917 20.2579C70.8609 20.9109 70.98 20.8876 70.2894 20.1996L69.7298 19.6515L69.8012 18.2521C69.9203 15.8616 70.0155 14.6955 70.1108 14.6955C70.1584 14.6955 70.3489 14.917 70.5275 15.1852C70.9204 15.7683 72.0754 16.9228 72.1706 16.8295C72.2064 16.7945 71.8968 16.2814 71.4681 15.6867C70.718 14.6255 70.2537 13.7626 70.4323 13.7626C70.4918 13.7626 70.7061 14.0075 70.9323 14.299C71.3729 14.8704 72.0158 15.3835 72.0158 15.1619C72.0158 15.0803 71.6348 14.334 71.1705 13.4944C70.1465 11.6869 70.0036 11.2554 69.9084 9.79775C69.8131 8.30512 69.9679 7.69873 70.8966 5.85626C71.7539 4.16539 72.0158 3.39574 72.0158 2.50949L72.0278 1.92643L72.3254 2.27627C72.4921 2.46285 72.8374 2.92929 73.0755 3.29079ZM56.3942 3.10421C56.549 3.88552 56.9658 4.80675 57.6563 5.86792C58.2755 6.81248 58.6684 7.64043 58.7518 8.15352C58.8232 8.58499 58.7994 8.63163 58.5136 8.74825C58.0731 8.9115 57.9659 8.89984 57.9659 8.68994C57.9659 8.41007 57.6087 7.48883 57.0848 6.36935C56.7991 5.78629 56.4538 4.95835 56.3109 4.51522C56.1561 4.08376 56.0013 3.73392 55.9418 3.73392C55.787 3.73392 55.1559 5.4248 54.9892 6.2644C54.8464 6.95242 54.8702 8.08355 55.0607 10.0543C55.1202 10.7073 55.1083 10.8473 54.9654 10.8473C54.8464 10.8473 54.6916 10.5324 54.5011 9.93769C53.9772 8.23515 54.1677 6.0545 55.0131 4.20037C55.3822 3.39574 56.037 2.33458 56.168 2.33458C56.2037 2.33458 56.3109 2.68441 56.3942 3.10421ZM91.6024 6.95242C92.4359 9.6345 92.3049 11.337 91.138 13.2961C90.5546 14.2757 89.5187 16.1764 89.5187 16.2697C89.5187 16.293 89.6259 16.2814 89.7568 16.2464C89.8878 16.2114 89.995 16.1415 89.995 16.0831C89.995 15.9549 90.7094 15.2435 90.7689 15.3018C90.8284 15.3485 89.3758 17.4242 89.0067 17.809C88.8757 17.9606 88.8043 18.1122 88.8519 18.1588C88.9115 18.2288 89.2449 17.9606 90.1736 17.086C90.2331 17.016 90.4474 16.8411 90.6379 16.6779L90.9832 16.3863L90.9118 16.8411C90.8165 17.4009 90.2093 18.6836 89.8164 19.15C89.5306 19.4766 89.4235 19.8264 89.6021 19.8264C89.8521 19.8264 90.9475 18.9751 91.6143 18.2638C92.4359 17.3775 92.9717 16.4796 92.9717 15.9665C92.9717 15.6867 93.055 15.7333 93.9599 16.6196C94.8053 17.4475 95.1268 17.6691 96.4246 18.2988C99.1155 19.6282 100.425 20.771 100.878 22.182C100.997 22.5784 101.187 22.3919 101.187 21.8788C101.187 21.2141 100.913 20.4561 100.461 19.908L100.104 19.4766H100.39C100.925 19.4766 101.914 19.8381 102.914 20.4095C103.973 21.0042 104.188 21.0042 103.545 20.4211C103.092 20.013 103.164 19.8264 103.652 20.1529C103.831 20.2812 104.378 20.631 104.855 20.9459C106.045 21.7039 106.307 22.0304 106.307 22.7417C106.307 23.0566 106.248 23.3481 106.188 23.3831C106.117 23.4297 105.843 23.2198 105.581 22.9283C104.259 21.459 104.902 23.3597 106.402 25.3888C107.665 27.0913 110.713 29.4003 113.344 30.6713C114.023 30.9978 114.904 31.5109 115.285 31.8141C115.94 32.3156 116.059 32.3622 116.773 32.3972C117.69 32.4438 118.023 32.5721 118.202 32.9686C118.392 33.3651 118.369 33.4584 118.095 33.3884C117.809 33.3184 117.583 33.4817 117.118 34.0997C116.618 34.7761 116.678 35.0676 117.428 35.8839C117.785 36.2571 118.214 36.6419 118.381 36.7352C118.714 36.8984 118.785 37.2133 118.535 37.4115C118.452 37.4815 118.131 37.5981 117.821 37.6681C117.19 37.8313 117.035 38.0879 117.642 37.9713C117.976 37.9013 118.011 37.9129 117.857 38.0645C117.619 38.2744 117.059 38.4027 116.964 38.2511C116.857 38.0762 116.666 38.1112 116.666 38.3211C116.666 38.4494 116.571 38.4843 116.345 38.461C116.154 38.4377 115.999 38.4727 115.987 38.5427C115.975 38.601 116.106 38.6476 116.285 38.6359C116.452 38.6243 116.642 38.6709 116.69 38.7526C116.737 38.8342 116.785 38.8342 116.785 38.7759C116.785 38.7059 116.94 38.6476 117.142 38.6359C117.642 38.601 117.964 38.4027 118.119 38.0412C118.19 37.8663 118.262 37.7847 118.297 37.8663C118.321 37.9363 118.25 38.1928 118.131 38.4494C117.94 38.8458 117.857 38.9042 117.38 38.9741C116.511 39.1024 115.594 39.0674 114.582 38.8808C114.058 38.7875 113.392 38.6826 113.094 38.6476C112.558 38.5893 112.57 38.5893 113.487 39.0091C114.261 39.3706 114.594 39.4522 115.594 39.5222C116.857 39.6155 117.333 39.7671 116.356 39.7671C114.904 39.7554 112.296 39.149 111.034 38.5193C110.844 38.426 110.629 38.3794 110.558 38.4027C110.367 38.461 111.963 39.3706 112.975 39.7787C113.999 40.1869 115.38 40.4434 116.987 40.5484C118.035 40.6067 118.214 40.595 118.285 40.4318C118.321 40.3385 118.297 40.1402 118.214 40.012C118.131 39.8487 118.131 39.7671 118.202 39.7671C118.357 39.7671 118.69 40.3851 118.69 40.6767C118.69 40.7933 118.571 40.9915 118.44 41.1198C117.916 41.5746 114.832 41.2597 112.451 40.5134C111.32 40.1636 110.427 39.7321 108.319 38.5193C105.855 37.0967 105.414 36.9451 104.104 36.9451C102.795 36.9567 102.164 37.0967 101.675 37.5048C101.247 37.8546 101.068 38.5077 101.33 38.8109C101.425 38.9158 101.556 39.1374 101.628 39.3123C101.699 39.4756 102.068 40.0003 102.461 40.4784C103.402 41.6212 103.783 42.3326 104.462 44.14C105.271 46.2857 105.748 47.1603 106.569 47.9999C107.712 49.1777 109.189 49.7957 110.796 49.7957C112.463 49.7957 113.189 49.4692 113.296 48.6529C113.368 48.0932 113.57 48.0582 113.713 48.583C113.856 49.0961 113.713 49.5159 113.273 49.9007C112.665 50.4138 112.118 50.5537 110.653 50.5537C109.582 50.5537 109.189 50.5071 108.534 50.2738C107.379 49.889 106.367 49.1777 105.557 48.1865C105.164 47.72 104.831 47.3585 104.795 47.3819C104.7 47.4868 105.271 48.7812 105.628 49.236C106.057 49.7724 107.391 50.612 107.819 50.612C107.974 50.612 108.093 50.6703 108.093 50.7403C108.093 51.0901 106.307 50.2155 105.557 49.5042C105.093 49.0611 104.628 48.2681 104.426 47.5801C104.188 46.7172 103.188 44.1284 103.045 43.9884C102.926 43.8718 102.902 43.9884 102.938 44.5715C102.997 45.4344 102.854 45.3411 102.509 44.2567C102.033 42.799 101.223 41.4113 100.937 41.5746C100.89 41.6096 100.556 41.1081 100.223 40.4434C99.5918 39.219 98.9488 38.1928 98.8536 38.2861C98.7821 38.3444 99.4132 39.9187 99.7704 40.6184C99.9133 40.8866 100.306 41.388 100.651 41.7495C101.247 42.3675 101.783 43.2071 101.783 43.522C101.783 43.6036 101.64 43.4404 101.473 43.1488C101.306 42.8573 100.842 42.2859 100.449 41.8661C100.056 41.4463 99.4846 40.7699 99.187 40.3618C98.8774 39.9537 98.4964 39.5339 98.3297 39.4406L98.032 39.254L98.3297 39.6038C98.4964 39.7904 98.8655 40.1869 99.1393 40.4901C99.9014 41.3413 99.7347 41.388 98.8417 40.5834C98.3892 40.1869 97.4129 39.3939 96.6627 38.8342C95.9126 38.2744 95.0791 37.5981 94.8172 37.3299C94.5672 37.0617 94.3052 36.8518 94.2576 36.8518C94.1028 36.8518 95.103 38.3911 95.5792 38.8692C95.8174 39.1141 96.8175 39.9187 97.7939 40.6417C100.009 42.2976 100.199 42.4492 100.08 42.4492C100.02 42.4492 99.8299 42.3442 99.6632 42.2043C99.1989 41.8544 96.7104 40.1286 95.9483 39.6388C95.5911 39.4056 94.9244 38.8458 94.46 38.4144C94.0075 37.9713 93.436 37.4582 93.2098 37.2599C92.8288 36.9334 92.805 36.9334 92.9836 37.2016C93.0907 37.3649 93.4003 37.878 93.6861 38.3444C94.4362 39.5922 95.103 40.1402 98.4607 42.2393C98.8179 42.4725 99.3417 42.764 99.6275 42.9039C99.9133 43.0555 100.116 43.1955 100.08 43.2188C99.949 43.3471 95.9245 40.9565 94.6148 39.9886C94.1147 39.6155 93.2931 38.8575 92.7811 38.3094C92.2692 37.773 91.8405 37.3415 91.8167 37.3649C91.7095 37.4582 92.2573 38.5543 92.7097 39.1724C93.1383 39.7321 94.2695 40.7933 95.2935 41.5746C95.5197 41.7495 95.5197 41.7612 95.2339 41.6212C93.5789 40.8283 91.9953 39.3589 90.6618 37.3649C89.995 36.3853 89.9712 36.5719 90.5784 37.9129C91.1023 39.0907 91.5429 39.7321 92.4716 40.7233C93.3169 41.6212 92.7335 41.2481 91.7691 40.2685C90.8046 39.289 89.864 38.0296 89.2925 36.9334C88.9115 36.2104 88.8043 36.0821 88.8638 36.3853C89.0663 37.4931 89.6616 38.8692 90.2807 39.7088C90.7689 40.3618 90.7451 40.4084 90.1855 39.8837C89.7449 39.4756 88.4471 37.6098 88.4471 37.3882C88.4471 37.2366 87.3517 35.0793 87.3041 35.1259C87.1612 35.2775 88.1137 38.2861 88.4947 38.8925C88.8281 39.4056 88.7924 39.5805 88.4471 39.184C87.9351 38.5893 87.4588 37.6447 87.0183 36.3387C86.8159 35.709 86.5182 35.0093 86.3872 34.7761C86.1967 34.4496 86.1253 34.1114 86.0896 33.2718C86.0539 32.6771 85.9943 32.1873 85.9348 32.1873C85.6133 32.1873 85.6728 35.0676 85.9943 35.6507C86.1848 35.9772 86.1848 35.9655 86.1253 35.3358C86.0777 34.881 86.1015 34.7644 86.1729 34.9277C86.2325 35.056 86.292 35.4291 86.292 35.744C86.3158 36.9801 86.9588 38.4494 88.0066 39.6155C88.5066 40.1752 90.4712 41.5862 91.2333 41.9361C91.5667 42.0877 91.7453 42.2159 91.6381 42.2159C91.2809 42.2159 90.2093 41.6795 89.3401 41.0731C87.3874 39.7088 86.8159 38.9741 86.0777 36.8285C85.4109 34.9044 85.1966 33.8665 85.2442 32.7237C85.268 32.1873 85.2561 31.7908 85.2204 31.8608C85.0299 32.164 85.0061 30.9862 85.1728 29.7618C85.2799 29.0154 85.3871 28.3857 85.4109 28.3624C85.4347 28.3391 85.8157 28.4907 86.2682 28.6889C87.6255 29.307 88.6971 29.6102 89.9712 29.7268C91.6381 29.8784 91.8881 29.7967 90.9237 29.4003C88.8281 28.5257 87.1969 26.8115 86.7325 25.004C86.4111 23.7679 86.2086 22.6251 86.3039 22.6251C86.4349 22.6251 88.4352 20.2112 88.3638 20.1296C88.1494 19.9314 86.1848 21.5289 86.1848 21.9138C86.1848 22.077 86.161 22.077 86.0658 21.9254C85.8038 21.5289 85.9586 21.2607 86.9469 20.3162C87.4946 19.7914 88.0066 19.36 88.078 19.36C88.1494 19.36 88.209 19.3016 88.209 19.2433C88.209 18.8585 86.6016 19.7098 86.1848 20.3278C85.9467 20.666 85.9348 20.666 85.9943 20.4095C86.03 20.2462 86.0658 20.0363 86.0658 19.9197C86.0658 19.8147 86.3634 19.4299 86.7206 19.0684C87.3755 18.4154 87.5065 18.1938 87.2326 18.1938C87.0302 18.1938 86.8873 18.2988 86.5063 18.7536C86.0777 19.2667 86.0896 19.0218 86.542 17.739C86.7325 17.191 86.9707 16.398 87.0659 15.9899C87.3279 14.9054 87.3993 14.917 87.5541 16.0248C87.6732 16.8528 87.8756 16.5379 87.947 15.4185C87.9827 14.7188 87.9351 14.2757 87.7327 13.5177C87.2088 11.5936 87.2922 9.55287 87.947 7.96694C88.4947 6.63757 89.2925 5.4831 90.5665 4.15372L91.007 3.68727L91.0904 4.62017C91.1261 5.15659 91.3523 6.15945 91.6024 6.95242ZM104.688 6.49763C105.033 7.67541 105.117 8.20017 105.117 9.26134C105.117 10.1942 104.95 11.0805 104.759 11.0805C104.724 11.0805 104.724 10.5324 104.735 9.8444C104.771 8.74825 104.616 7.25561 104.438 6.96408C104.402 6.90577 104.164 7.31392 103.914 7.87365C103.307 9.20303 103.116 9.43626 102.461 9.68114C102.152 9.79775 101.902 9.86772 101.902 9.83274C101.902 9.6928 102.628 8.52668 102.819 8.38675C103.128 8.1302 104.176 6.50929 104.247 6.14779C104.343 5.66968 104.462 5.76297 104.688 6.49763ZM68.2652 7.3489C68.7534 7.99026 68.8248 8.38675 68.3605 7.87365C68.1938 7.67541 67.7651 7.22062 67.4199 6.84747C67.0627 6.48597 66.7769 6.12447 66.7769 6.0545C66.7769 5.85626 67.8247 6.76584 68.2652 7.3489ZM64.8123 7.36056C65.4314 7.65209 66.5388 8.60831 66.5388 8.84153C66.5388 8.9115 66.2292 8.77157 65.8601 8.52668C65.4791 8.2818 64.6932 7.83867 64.0979 7.53548C63.5145 7.23228 62.8953 6.88245 62.7286 6.76584C62.4548 6.55593 62.5024 6.55593 63.3239 6.81248C63.824 6.95242 64.4908 7.1973 64.8123 7.36056ZM66.765 7.3489C67.1222 7.59378 68.1581 8.84153 68.0747 8.92316C68.039 8.94648 67.6223 8.55 67.146 8.04857C66.2768 7.10401 66.1816 6.9291 66.765 7.3489ZM95.7221 9.03978C95.1268 9.41293 93.8408 9.91437 93.4836 9.91437C93.2336 9.91437 93.305 9.58785 93.6027 9.43626C93.9956 9.22635 95.8531 8.6433 96.1269 8.6433C96.2817 8.6433 96.1507 8.77157 95.7221 9.03978ZM63.4192 9.28466C63.9431 9.42459 63.6573 9.52954 62.3476 9.66948C61.6094 9.75111 60.4901 9.94935 59.871 10.1126C57.5135 10.7307 56.1323 11.0688 56.0966 11.0338C56.0728 11.0105 56.5847 10.7656 57.2158 10.4741C58.2398 10.0077 58.7041 9.8444 60.2877 9.34297C60.6807 9.21469 62.9906 9.17971 63.4192 9.28466ZM65.1814 10.9172C64.8837 11.3604 64.3122 12.2583 63.8955 12.9113C63.4787 13.5643 62.5738 14.9287 61.8832 15.9432C61.1807 16.9577 60.5259 17.9373 60.4306 18.1355C60.3235 18.3221 60.2401 18.4037 60.2282 18.2988C60.2163 17.5291 61.6332 14.6372 62.7524 13.1562C63.443 12.2349 65.5743 9.98433 65.6696 10.066C65.6934 10.0893 65.4672 10.4741 65.1814 10.9172ZM63.8359 10.5441C63.5264 11.0572 60.9307 13.576 59.8829 14.3806C59.2042 14.9054 58.1088 15.8033 57.4658 16.363C56.8229 16.9344 56.299 17.3659 56.299 17.3309C56.299 17.2843 56.7395 16.6895 57.2753 16.0015C58.7399 14.1241 60.3711 12.5964 62.1928 11.407C63.7407 10.3808 64.0145 10.2409 63.8359 10.5441ZM102.604 10.9872C102.473 11.3254 102.318 11.6402 102.271 11.6869C102.152 11.8151 100.675 11.1038 100.771 10.9639C100.806 10.9056 101.044 10.8473 101.283 10.8473C101.521 10.8473 101.937 10.7423 102.199 10.6257C102.461 10.4974 102.711 10.3925 102.759 10.3925C102.807 10.3808 102.735 10.6607 102.604 10.9872ZM61.3474 10.9406C60.0377 12.0367 57.6087 13.7043 56.6324 14.1707L56.2395 14.3573L56.5967 14.0308C56.7991 13.8559 57.1444 13.5527 57.3706 13.3777C57.6802 13.1329 57.7159 13.0862 57.4897 13.1912C57.1801 13.3311 56.4895 13.8559 55.9061 14.3806C55.5131 14.7421 54.5249 15.3252 54.4415 15.2552C54.4177 15.2202 54.5725 15.057 54.7987 14.8937C55.0131 14.7188 55.6203 14.1824 56.1204 13.6926C57.6802 12.2 58.8946 11.3953 60.4068 10.8706C61.6689 10.4391 61.9309 10.4508 61.3474 10.9406ZM67.5627 11.442C67.7413 12.1417 67.7771 13.1562 67.6223 13.3894C67.5627 13.4827 67.4913 13.1095 67.4556 12.4565C67.4079 11.8618 67.3365 11.2088 67.3008 11.0222C67.1698 10.4391 67.3722 10.7773 67.5627 11.442ZM98.0439 11.0572C98.9965 11.3604 99.5799 11.6635 100.89 12.4915C102.711 13.646 102.914 13.7043 104.712 13.7043H106.283L105.819 13.9142C105.14 14.2174 104.081 14.3806 103.33 14.299C102.973 14.2523 102.009 13.9841 101.187 13.6809C98.5083 12.7247 98.163 12.6081 98.1273 12.6431C97.9725 12.7947 101.175 14.7538 102.318 15.1969C102.688 15.3368 102.735 15.3835 102.509 15.3835C101.64 15.4068 99.4846 14.5555 97.9487 13.5876C96.3293 12.5498 95.5316 12.095 94.7577 11.7568L93.9837 11.4187L94.841 11.477C95.4244 11.512 95.9721 11.6402 96.5437 11.8851C97.1985 12.1533 97.3533 12.1883 97.2104 12.025C97.1033 11.9201 96.7699 11.6985 96.4603 11.5469C95.9602 11.2904 95.734 11.2671 94.6624 11.2787C93.3408 11.2904 93.2455 11.1971 94.2814 10.9056C95.1744 10.6607 97.0676 10.7423 98.0439 11.0572ZM69.0154 13.5293C69.0392 14.334 69.0154 15.1736 68.9558 15.3951C68.8606 15.745 68.8248 15.64 68.7534 14.5788C68.7058 13.9025 68.5867 12.8063 68.4915 12.1417C68.3962 11.4653 68.3248 10.8939 68.3367 10.8589C68.3367 10.8239 68.4796 11.0805 68.6582 11.4303C68.9201 11.9784 68.9677 12.2583 69.0154 13.5293ZM65.6934 12.0367C65.5029 12.4449 65.1933 13.0279 65.0266 13.3544C64.8599 13.6693 64.5861 14.194 64.4194 14.5205C64.2527 14.8354 64.0264 15.2435 63.9074 15.4185C63.5502 15.8966 63.6454 15.9665 64.0503 15.5117C64.5861 14.8937 65.8839 13.0746 66.1935 12.4798L66.4792 11.9551L66.5745 12.8297C66.7293 14.2873 66.6102 14.9287 65.9315 16.293C65.5981 16.9577 65.3005 17.4825 65.2766 17.4592C65.2528 17.4358 65.4433 16.8411 65.6934 16.1298C66.0744 15.0919 66.503 13.2145 66.384 13.0979C66.3602 13.0862 66.0863 13.506 65.7648 14.0308C65.4552 14.5555 64.979 15.2435 64.7289 15.5701C64.0741 16.3863 62.3714 18.1122 62.2881 18.0306C62.2523 17.9956 62.4667 17.6458 62.7524 17.2376C63.0382 16.8295 63.3239 16.4213 63.3835 16.328C63.6692 15.8616 63.0144 16.5496 62.5143 17.2493C61.5975 18.532 60.7759 19.5115 60.7402 19.4066C60.6568 19.1617 62.3476 16.2697 63.9074 13.9608C65.11 12.1883 65.7886 11.3137 65.9553 11.3137C66.0149 11.3137 65.8958 11.6402 65.6934 12.0367ZM94.6981 12.6897C94.9601 12.818 95.9245 13.4361 96.8413 14.0658C98.6512 15.3018 100.413 16.1881 101.723 16.5146C102.247 16.6429 103.009 16.7245 103.783 16.7362C104.866 16.7362 104.974 16.7478 104.664 16.8761C104.462 16.9577 103.807 17.086 103.211 17.156C101.878 17.3192 101.044 17.2026 99.4965 16.6196C97.6391 15.9199 96.9485 15.4534 94.9958 13.611C93.5551 12.2466 93.5075 12.0834 94.6981 12.6897ZM85.4942 13.0279C84.3274 14.4039 83.6844 16.6429 83.6844 19.3366C83.6844 21.2491 83.8035 22.042 84.3512 23.7446C84.7917 25.1556 85.3275 26.0535 86.2444 26.9747C87.3636 28.1059 86.542 27.5461 84.6489 25.9019C83.744 25.1206 83.0534 24.1644 82.6723 23.1615C81.9699 21.3424 81.827 18.9518 82.3032 17.0277L82.5771 15.9199L82.6366 18.8352L82.6843 21.7505L83.2439 23.1848C83.9226 24.9107 84.0535 25.1672 84.4464 25.5287C84.7322 25.7853 84.8989 25.7386 84.6489 25.4821C84.4226 25.2372 83.3272 22.6368 83.1605 21.9254C82.8986 20.8059 82.7914 18.7536 82.9581 17.7274C83.1129 16.7129 83.613 15.0686 83.9345 14.4389C84.0654 14.194 84.4941 13.6576 84.887 13.2378C85.7443 12.3516 86.2086 12.1883 85.4942 13.0279ZM94.7815 14.1241C95.5792 14.9637 96.5437 15.8499 96.9009 16.0831C97.9606 16.7828 99.6037 17.4475 101.009 17.7624L102.318 18.0656H101.58C99.2584 18.1005 96.2698 16.8178 94.6267 15.1036C94.0552 14.4972 92.9717 12.9579 92.9717 12.7364C92.9717 12.3632 93.4241 12.7131 94.7815 14.1241ZM82.9819 14.2523C81.8746 15.9665 81.1126 18.0889 80.9816 19.7681C80.8863 21.0392 80.7792 21.1674 80.6006 20.1879C80.4815 19.5465 80.4815 19.2317 80.5887 18.6953C80.7673 17.8673 81.2912 16.4563 81.7793 15.4884C82.1246 14.8121 83.3034 13.3428 83.4106 13.4594C83.4344 13.4827 83.2439 13.8442 82.9819 14.2523ZM86.2682 13.9025C85.5061 15.5934 85.3156 16.2697 85.0537 18.3221C84.8513 19.8497 84.8632 21.9254 85.0656 22.8C85.2204 23.4647 84.9823 23.0099 84.756 22.2053C84.3631 20.7943 84.2559 19.6398 84.3988 18.1822C84.5774 16.363 84.9703 15.2435 85.8157 14.1357C86.1015 13.7742 86.3992 13.6226 86.2682 13.9025ZM75.8974 14.9637C76.4928 15.8266 76.8142 16.4446 76.7428 16.5263C76.6714 16.5846 76.6356 16.5263 75.7903 15.1269C75.1235 14.0541 75.2068 13.9258 75.8974 14.9637ZM92.1382 15.9665C91.9953 16.4796 91.8048 16.9577 91.7095 17.0277C91.6024 17.121 91.6262 16.9694 91.781 16.5146C91.912 16.1648 92.0191 15.8033 92.0191 15.7216C92.0191 15.64 92.0787 15.3602 92.162 15.1036C92.4239 14.229 92.4001 15.0103 92.1382 15.9665ZM62.1333 18.2288C62.1333 18.2521 62.0142 18.3687 61.8713 18.497L61.5975 18.7186L61.8237 18.4504C62.038 18.2055 62.1333 18.1355 62.1333 18.2288ZM77.4929 20.4095C78.3502 22.077 78.505 22.4852 78.0764 21.8671C77.5763 21.1325 76.4451 18.7769 76.5999 18.7769C76.6356 18.7769 77.0286 19.5115 77.4929 20.4095ZM51.9411 23.1032C51.9888 23.3714 52.0007 23.6046 51.9888 23.6163C51.9649 23.628 51.6077 23.7446 51.1791 23.8845C50.7505 24.0128 50.1194 24.2343 49.7741 24.3626L49.1311 24.6192L49.3812 24.2693C49.7622 23.7446 50.4528 23.2082 51.1077 22.905C51.441 22.7534 51.7506 22.6251 51.7863 22.6251C51.834 22.6251 51.8935 22.8467 51.9411 23.1032ZM54.2153 23.0332C54.513 23.1615 54.5368 23.1965 54.3225 23.1965C54.1796 23.2082 53.8938 23.2431 53.6914 23.2781C53.3699 23.3481 53.3223 23.3248 53.3223 23.1032C53.3223 22.8117 53.6676 22.7767 54.2153 23.0332ZM65.3481 23.1032C64.9075 23.3714 64.8361 23.4414 64.2646 24.2343C63.9074 24.7241 63.8597 25.1089 64.2169 24.6541C64.3836 24.4442 64.3836 24.4442 64.3955 24.7358C64.3955 25.0506 64.1455 25.4821 63.3359 26.4733C62.8477 27.0797 62.7286 27.4412 62.9787 27.5928C63.0501 27.6278 63.2644 27.5578 63.4549 27.4179L63.8121 27.1613L63.6216 27.5928C63.5264 27.826 63.443 28.1525 63.4549 28.3274L63.4668 28.6306L63.6097 28.2808C63.6931 28.0825 63.9074 27.6161 64.086 27.2313C64.2646 26.8465 64.5384 26.2167 64.6932 25.8319C65.3481 24.1061 65.7886 23.5813 66.8721 23.1732C67.5508 22.905 68.0985 22.9283 68.7415 23.2198C69.444 23.5463 69.7417 23.8728 69.0868 23.6046C67.9199 23.1265 66.4197 23.523 65.8005 24.4792C65.4433 25.0506 64.8718 26.6482 64.8718 27.1147C64.8718 27.5811 65.11 27.9659 65.4552 28.0242C65.8482 28.1059 65.9077 28.0359 65.7291 27.756C65.5862 27.5345 65.5386 27.173 65.6338 27.173C65.6577 27.173 66.0744 27.3595 66.5626 27.5928C67.3008 27.9426 67.5151 28.0009 68.0033 27.9426C68.3248 27.9076 68.7415 27.8027 68.9439 27.6977C69.1463 27.6044 69.3726 27.5228 69.4559 27.5228C69.7774 27.5228 70.2775 26.5666 70.4084 25.6803C70.5037 25.0973 70.6704 25.0856 70.98 25.6687C71.2657 26.2051 71.2181 27.8377 70.8847 28.514C70.5751 29.1437 69.4797 30.1466 68.682 30.5314C68.1104 30.7996 67.8842 30.8463 66.9555 30.8463C65.5505 30.8346 64.7647 30.5431 63.7883 29.6451C62.9072 28.8522 62.6453 28.3741 62.4786 27.2546C62.3238 26.2167 62.4905 25.4588 63.0858 24.5842C63.6335 23.7796 64.9075 22.8816 65.5267 22.87C65.7053 22.8583 65.6577 22.9166 65.3481 23.1032ZM68.4438 24.7358C68.6462 25.0856 68.5034 25.3072 68.0866 25.3072C67.6342 25.3072 67.5032 25.039 67.789 24.7241C68.0628 24.4209 68.2771 24.4326 68.4438 24.7358ZM78.4693 24.9923C78.8622 25.5987 79.4099 26.9397 79.7552 28.1408C80.16 29.5635 79.9814 29.4469 79.4099 27.9193C79.1241 27.1496 78.6836 26.0885 78.4336 25.5521C77.9216 24.4909 77.9335 24.4909 78.0645 24.4909C78.1121 24.4909 78.2907 24.7124 78.4693 24.9923ZM54.2748 25.004C54.2748 25.2255 54.2153 25.4471 54.1558 25.4821C53.9653 25.5987 53.6795 25.3188 53.6795 25.0156C53.6795 24.7124 53.7748 24.6075 54.0605 24.6075C54.2272 24.6075 54.2748 24.7008 54.2748 25.004ZM67.3484 25.1439C67.5508 25.8669 68.1343 26.4383 68.7891 26.5433C69.0511 26.5899 69.2773 26.6482 69.2773 26.6949C69.2773 26.7881 68.6939 27.033 68.1462 27.1846C67.4675 27.3712 65.8244 26.8465 65.8244 26.4383C65.8244 26.0418 66.1101 25.3771 66.4435 25.0156C66.9436 24.4559 67.1698 24.4792 67.3484 25.1439ZM52.6198 25.5054C52.8103 26.1351 52.846 29.0854 52.6913 29.995C52.6079 30.4964 52.5603 30.5547 52.2745 30.5547C51.5244 30.5547 50.1789 29.6568 49.5241 28.7239C49.1311 28.1642 48.7978 27.0913 48.7978 26.3917C48.7978 25.7969 48.8097 25.7736 49.1311 25.762C49.3097 25.762 49.9884 25.587 50.6433 25.3655C52.3221 24.8174 52.4174 24.8291 52.6198 25.5054ZM75.7665 25.1906C75.7307 25.2489 75.7784 25.8319 75.8736 26.4966C76.2189 28.7822 76.4451 31.7442 76.3737 32.8287C76.1118 36.432 75.4807 38.0412 73.5756 39.8954C72.7183 40.7233 72.3611 40.9798 71.5158 41.3647C70.4442 41.8661 69.3011 42.2742 69.2178 42.1926C69.182 42.1693 69.575 41.9361 70.087 41.6795C70.849 41.2947 71.099 41.0965 71.5753 40.4668C72.3135 39.4989 72.6588 38.8458 73.0994 37.5281C73.5042 36.3037 73.5875 35.4408 73.1827 36.5602C72.766 37.7497 70.6942 40.56 69.9679 40.9449C69.8369 41.0148 70.0512 40.7 70.4323 40.2569C71.0752 39.5105 72.1349 37.5165 71.9801 37.3532C71.9444 37.3299 71.6229 37.738 71.2657 38.2744C70.8966 38.8109 70.2894 39.5222 69.9084 39.8604C69.5273 40.1985 69.0392 40.6417 68.8248 40.8283C68.1462 41.4346 68.301 41.1431 69.1106 40.2918C69.6226 39.7438 70.0512 39.1374 70.3965 38.4494C70.6704 37.8896 70.8847 37.4115 70.849 37.3765C70.8252 37.3532 70.5632 37.6331 70.2894 37.9946C69.5273 38.9741 68.1223 40.4201 68.0152 40.3268C67.9676 40.2802 68.17 39.9303 68.4676 39.5688C68.7534 39.1957 69.1106 38.7059 69.2416 38.4843C69.5273 38.0179 70.1346 36.5952 70.0631 36.5369C70.0393 36.5136 69.825 36.8285 69.5869 37.2249C69.3487 37.6331 68.6939 38.426 68.1462 39.0091C67.5865 39.5805 67.0269 40.2452 66.896 40.4668C66.7769 40.6883 66.6697 40.8166 66.6578 40.7466C66.6459 40.4201 67.0627 39.7321 67.6699 39.0557C68.0271 38.6476 68.3248 38.2278 68.3248 38.1345C68.3129 38.0062 68.2771 38.0296 68.1819 38.1928C68.0985 38.3211 67.8961 38.5776 67.7056 38.7759C67.527 38.9625 67.3722 39.1607 67.3722 39.2073C67.3722 39.2423 67.1817 39.3939 66.9555 39.5339C66.6459 39.7204 66.3959 40.0703 65.9791 40.8516C65.6696 41.4346 65.4076 41.8544 65.3719 41.7728C65.3481 41.7028 65.4076 41.5046 65.5029 41.318C65.741 40.8516 65.9791 39.9303 65.9077 39.7438C65.8839 39.6621 65.5029 40.3152 65.0623 41.2131C64.2527 42.834 63.9193 43.2538 64.3836 42.041C64.5265 41.6795 64.6337 41.2247 64.6337 41.0148C64.6218 40.665 64.6099 40.6767 64.3836 41.2247C64.2646 41.5396 64.0979 42.1226 64.0264 42.5075C63.955 42.8923 63.8121 43.4404 63.705 43.7202L63.5264 44.2333L63.3716 43.9301C63.2763 43.7669 63.0977 43.592 62.9548 43.557C62.681 43.4637 61.9547 43.5686 61.6332 43.7436C61.3593 43.8952 60.764 44.7581 60.514 45.3761C60.3949 45.656 60.002 46.3323 59.6448 46.8688C58.9423 47.9066 58.216 48.5013 57.1325 48.9095C56.43 49.1777 54.8702 49.271 53.9057 49.1194C53.489 49.0378 52.6436 48.9328 52.0364 48.8628C50.4409 48.6879 49.9884 48.408 49.9884 47.5918C49.9884 47.1836 50.1432 47.1253 50.3694 47.4518C50.5123 47.6501 50.7505 47.6851 52.3817 47.755C54.4534 47.8483 55.1678 47.72 55.7036 47.172C56.0609 46.8105 55.8942 46.7988 54.8821 47.1603C53.7748 47.5451 53.0008 47.6267 51.9888 47.4518C51.0005 47.2886 50.5242 47.0903 50.3456 46.7755C50.1194 46.3557 50.2266 46.2974 50.6909 46.5889C50.941 46.7522 51.3577 46.9154 51.6077 46.9387L52.0721 46.997L51.4053 46.6822C50.6433 46.309 50.0361 45.8659 50.1432 45.7493C50.1908 45.7143 50.548 45.8193 50.941 45.9825C51.6792 46.2974 51.7625 46.2624 51.4887 45.7376C51.2386 45.2712 50.6552 44.898 50.2027 44.9213L49.8098 44.933L50.1789 44.9796C50.5719 45.0263 51.5363 45.7493 51.4053 45.8776C51.2505 46.0408 50.0361 45.3411 49.7146 44.898C49.536 44.6531 49.3931 44.4082 49.3931 44.3499C49.3931 44.3033 49.7027 44.0934 50.0837 43.8952C50.6314 43.6153 50.8338 43.4287 51.0958 42.9389L51.4291 42.3442L51.1434 41.9011C50.9886 41.6562 50.7505 41.2131 50.6076 40.9099C50.3575 40.3385 49.8694 39.9303 49.5717 40.047C49.4407 40.0936 49.3931 40.0236 49.3931 39.7204C49.3931 39.254 49.5955 39.0674 50.4885 38.6826C50.9529 38.4727 51.4053 38.1462 51.9411 37.5864C52.3698 37.155 52.6674 36.7818 52.6079 36.7585C52.4888 36.7118 52.5603 36.5369 53.3818 34.7528C53.6676 34.1464 54.0129 33.3301 54.1558 32.9453C54.4654 32.1057 54.6082 31.9424 55.4655 31.4293C56.8586 30.6014 57.8945 29.0621 58.0493 27.6044C58.085 27.208 58.1683 26.8231 58.2279 26.7415C58.2874 26.6715 58.597 26.5549 58.9304 26.485C59.4185 26.38 59.6091 26.3917 60.1449 26.5899L60.7759 26.8231L60.9783 27.6627C61.0855 28.1292 61.3355 28.8289 61.5379 29.2137C62.1095 30.3681 63.8597 31.9424 64.1812 31.6276C64.2646 31.5459 64.4908 31.4876 64.7051 31.4876C65.0028 31.4876 65.1695 31.5809 65.4314 31.9191L65.7886 32.3389L66.8483 32.3505C69.8369 32.3739 72.0397 30.5081 72.5874 27.4995C72.7541 26.6132 72.8136 26.45 73.0755 26.31C75.1116 25.2139 75.9808 24.8524 75.7665 25.1906ZM56.43 26.1584C56.6205 27.0447 56.3942 28.2458 55.9061 29.0504C55.4655 29.7618 54.632 30.4381 54.1915 30.4381C53.9176 30.4381 53.8938 30.4031 53.9653 30.0533C54.001 29.855 54.1201 29.4003 54.2391 29.0621C54.382 28.5723 54.4058 28.3857 54.2868 28.1525C54.0724 27.6744 54.132 27.5928 54.8821 27.3595C55.5131 27.1613 55.6322 27.0797 55.787 26.7298C55.8822 26.5083 55.9894 26.0652 56.0251 25.7503C56.1085 25.0623 56.2395 25.1906 56.43 26.1584ZM54.894 26.2051C55.3822 26.1468 55.4536 26.2284 55.1559 26.5199C54.763 26.9164 54.0486 26.6366 54.0367 26.0885C54.0367 25.8902 54.0486 25.8902 54.2391 26.0652C54.382 26.2051 54.5606 26.2517 54.894 26.2051ZM78.0168 27.7794C78.2907 28.4557 78.4693 29.237 78.2073 28.6306C77.862 27.8027 77.4929 26.7881 77.5882 26.8814C77.6477 26.9514 77.8382 27.3479 78.0168 27.7794ZM79.1956 31.5109C79.2908 31.7908 79.5171 32.3739 79.6838 32.8287C80.1005 33.9015 79.8981 33.6683 79.4337 32.5371C79.0646 31.6509 78.8741 31.0212 78.9694 31.0212C78.9932 31.0212 79.1003 31.2427 79.1956 31.5109ZM53.739 32.852C53.6319 33.2834 53.5247 33.0852 53.6319 32.6304C53.6795 32.4205 53.739 32.3156 53.7629 32.3972C53.7986 32.4788 53.7867 32.6771 53.739 32.852ZM78.9694 36.3503C79.1837 37.5631 79.3504 40.0936 79.1718 39.4172C78.9098 38.4494 78.5526 35.056 78.7312 35.2309C78.755 35.2542 78.8622 35.7556 78.9694 36.3503ZM80.9935 36.7352C81.3983 37.05 81.9937 37.4115 82.3032 37.5515C82.9819 37.8313 84.2559 38.0412 84.9942 37.9946C85.4585 37.9713 85.53 37.9946 85.53 38.1928C85.53 38.3911 85.3871 38.4494 84.637 38.5776C83.7797 38.7292 82.3032 38.7059 81.8746 38.5427C81.6722 38.461 81.6603 38.566 81.6603 39.7438C81.6603 41.2014 81.8984 42.7524 82.2556 43.557C82.5652 44.2567 82.5533 44.2683 82.1723 44.2683C81.8627 44.2567 81.8389 44.28 81.8627 44.7231C81.9103 45.3295 82.4104 46.2857 82.9938 46.8688C83.5296 47.3935 83.3153 47.4052 82.5652 46.9037C81.5888 46.2507 80.9578 44.898 80.7077 42.9623C80.6363 42.4492 80.5291 40.9798 80.4696 39.6855C80.4101 38.3794 80.3267 37.19 80.291 37.0267C80.2553 36.8634 80.2077 36.6069 80.1719 36.4436C80.1362 36.2804 80.1362 36.1521 80.1719 36.1521C80.2077 36.1521 80.5768 36.4087 80.9935 36.7352ZM108.534 39.907C108.677 40.0236 108.677 40.0703 108.522 40.2102C108.379 40.3618 108.284 40.3618 107.974 40.2335C107.593 40.0819 107.319 39.7204 107.438 39.5339C107.51 39.4172 108.236 39.6621 108.534 39.907ZM118.023 39.6155C117.821 39.8137 117.011 39.8137 117.083 39.6155C117.118 39.5339 117.357 39.4756 117.666 39.4756C118.083 39.4756 118.142 39.4989 118.023 39.6155ZM110.236 40.8866C110.641 41.0498 110.713 41.1198 110.641 41.3297C110.534 41.6795 110.236 41.9827 109.998 41.9827C109.712 41.9827 109.165 41.5396 109.165 41.318C109.165 41.1081 109.498 40.7 109.653 40.7C109.712 40.7 109.974 40.7816 110.236 40.8866ZM66.4554 41.1081C66.4197 41.2131 66.3602 41.2714 66.3363 41.2364C66.3006 41.2014 66.3125 41.1314 66.3602 41.0615C66.4673 40.8749 66.5388 40.9099 66.4554 41.1081ZM69.1582 41.6795C69.1582 41.7028 69.0749 41.7612 68.9677 41.7961C68.8725 41.8311 68.8248 41.8195 68.8606 41.7495C68.932 41.6329 69.1582 41.5862 69.1582 41.6795ZM112.832 41.8778C113.404 42.0177 113.916 42.1693 113.963 42.2159C114.07 42.3092 113.82 42.9506 113.546 43.3121C113.368 43.5337 113.356 43.522 112.534 43.2888C112.07 43.1488 111.57 42.9389 111.415 42.8107C111.165 42.6124 111.153 42.5658 111.284 42.111C111.379 41.8311 111.51 41.6329 111.618 41.6329C111.713 41.6329 112.261 41.7495 112.832 41.8778ZM98.8655 43.4753C98.8059 43.5337 96.9247 42.5891 96.8532 42.4608C96.8056 42.4025 97.2581 42.6008 97.8415 42.8923C98.4249 43.1955 98.8893 43.452 98.8655 43.4753ZM49.917 42.6357C50.0361 42.9273 50.0003 43.0322 49.8098 43.0322C49.7027 43.0322 49.6312 42.9273 49.6312 42.7407C49.6312 42.4142 49.8098 42.3442 49.917 42.6357ZM106.629 43.0439C107.343 43.3471 108.831 44.2217 110.01 44.9913C110.558 45.3645 111.189 45.6443 111.26 45.5627C111.284 45.5394 111.177 45.2712 111.01 44.968C110.844 44.6648 110.784 44.4666 110.867 44.5132C111.546 44.9213 112.38 45.5277 112.665 45.8193C113.094 46.2507 113.023 46.6705 112.499 46.8804C111.915 47.1137 110.653 46.9737 109.879 46.5889C108.76 46.0292 107.581 45.1895 106.855 44.4199C106.474 44.0118 105.914 43.417 105.605 43.1022L105.069 42.5308L105.474 42.6241C105.7 42.6707 106.224 42.8573 106.629 43.0439ZM115.904 42.7407C115.94 42.834 115.856 43.0672 115.713 43.2654C115.499 43.557 115.38 43.6153 114.951 43.6153C114.678 43.6153 114.404 43.5803 114.368 43.5453C114.285 43.452 114.463 43.0672 114.737 42.764C114.963 42.5075 115.809 42.4841 115.904 42.7407ZM62.4071 45.5044C61.6808 46.379 61.4189 46.379 61.8594 45.5044C62.0499 45.1312 62.6691 44.6648 63.0025 44.6648C63.0501 44.6648 62.7881 45.038 62.4071 45.5044ZM106.903 46.4256C106.903 46.7288 106.724 46.7871 106.521 46.5539C106.283 46.2974 106.164 45.9592 106.26 45.8076C106.355 45.656 106.903 46.1691 106.903 46.4256ZM107.915 46.9271C108.224 47.0553 108.331 47.172 108.331 47.3702C108.319 48.0349 107.915 48.0699 107.319 47.4635C107.045 47.1836 107.01 47.0903 107.141 46.9387C107.319 46.7172 107.403 46.7172 107.915 46.9271ZM89.4711 47.8716C89.6378 48.2681 89.6854 48.478 89.5782 48.3847C89.4711 48.2798 89.1615 47.4635 89.221 47.4635C89.2568 47.4635 89.3758 47.6501 89.4711 47.8716ZM60.4782 48.5247C59.621 50.7636 58.2993 51.6149 55.7036 51.5916C54.2868 51.5799 53.2985 51.2884 52.5841 50.6703L52.1912 50.3205L52.5484 50.2738C52.7508 50.2505 53.5128 50.3088 54.251 50.3905C55.9656 50.577 56.6919 50.4604 58.1683 49.7374C59.0613 49.306 59.3709 49.0727 59.9424 48.443C60.3235 48.0232 60.6568 47.72 60.6807 47.79C60.6926 47.8483 60.6092 48.1865 60.4782 48.5247ZM110.224 47.9882C110.439 48.1981 110.284 48.6296 109.986 48.6296C109.617 48.6296 108.927 48.3031 108.927 48.1398C108.927 47.6967 109.808 47.5918 110.224 47.9882ZM112.141 48.3264C112.141 48.6179 111.784 48.8628 111.356 48.8628C111.034 48.8628 110.951 48.8162 110.951 48.6296C110.951 48.3497 111.26 48.1748 111.76 48.1632C112.01 48.1632 112.141 48.2215 112.141 48.3264ZM80.3624 51.335C80.5887 51.7315 80.3863 51.5333 80.0052 50.9852C79.7076 50.577 79.6957 50.5187 79.9338 50.7869C80.1005 50.9735 80.291 51.2301 80.3624 51.335Z" fill="#591516"/>
<path d="M72.3728 3.73417C72.3728 3.95574 72.0989 4.81867 71.7655 5.65827C70.6344 8.50361 70.5272 9.23827 70.944 11.174C71.1821 12.2702 72.2537 14.5908 72.2537 14.0077C72.2537 13.8678 72.5394 13.0282 72.8967 12.1419C73.623 10.3461 73.8016 9.57644 73.8016 8.2354C73.8016 6.49788 73.2777 4.39886 72.6585 3.65254L72.3847 3.32603L72.3728 3.73417Z" fill="#591516"/>
<path d="M74.0635 20.7592C74.6112 21.7854 75.0875 22.625 75.1351 22.625C75.397 22.6367 74.4683 20.6543 73.742 19.6631C73.4324 19.2433 73.1586 18.8934 73.1348 18.8934C73.1109 18.8934 73.5277 19.733 74.0635 20.7592Z" fill="#591516"/>
<path d="M73.326 20.8763C73.3975 21.0045 73.4808 21.1095 73.5166 21.1095C73.5404 21.1095 73.5166 21.0045 73.4451 20.8763C73.3736 20.748 73.2903 20.643 73.2545 20.643C73.2307 20.643 73.2545 20.748 73.326 20.8763Z" fill="#591516"/>
<path d="M90.1491 5.56495C89.1013 6.88267 88.5298 8.28202 88.3512 9.96123C88.2083 11.2323 88.3155 12.1186 88.8156 13.6928C89.1371 14.6957 89.1847 14.9756 89.1252 15.6752L89.0537 16.5032L89.3276 15.5703C89.6014 14.6374 89.911 13.9494 90.5778 12.8416C91.4232 11.4539 91.5422 9.70469 91.0064 6.99928C90.8278 6.13635 90.6492 5.35505 90.6016 5.27342C90.5302 5.15681 90.4111 5.22678 90.1491 5.56495Z" fill="#591516"/>
<path d="M88.4348 14.952C88.5301 15.4068 88.6373 15.7217 88.6611 15.6517C88.7207 15.4768 88.4587 14.2524 88.3396 14.1824C88.2919 14.1474 88.3276 14.4972 88.4348 14.952Z" fill="#591516"/>
<path d="M92.7337 18.2988C92.0788 18.637 91.1144 19.5232 90.8286 20.0713L90.6738 20.3512L90.9596 20.118C91.8169 19.4066 93.6148 18.4271 94.0672 18.4271C94.3887 18.4271 94.6388 18.2988 94.6388 18.1239C94.6388 17.8207 93.4719 17.9257 92.7337 18.2988Z" fill="#591516"/>
<path d="M93.5072 19.8262C93.1857 19.9545 92.6618 20.246 92.3522 20.4676C91.7093 20.934 90.3995 22.4266 90.59 22.4849C90.6496 22.5083 91.0425 22.31 91.4592 22.0535C91.864 21.7853 92.5189 21.4121 92.9118 21.2255C94.5312 20.4326 96.3767 20.9923 97.0792 22.4849C97.7936 23.9776 99.5082 26.4731 99.8296 26.4731C100.02 26.4731 99.9963 26.4031 99.6034 25.855C99.2819 25.4003 99.4248 25.3419 100.092 25.6335C100.877 25.9717 101.508 26.1466 101.747 26.0999C101.901 26.0649 101.842 25.995 101.52 25.8317C101.27 25.7151 101.068 25.5752 101.068 25.5169C101.068 25.4702 100.675 25.167 100.199 24.8522C99.1629 24.1642 98.6866 23.6627 98.2103 22.7415C97.8412 22.0302 97.9008 21.7153 98.3413 22.1118C98.6271 22.3683 98.7342 22.275 98.6271 21.8203C98.5675 21.5404 98.3294 21.3188 97.615 20.8174C97.0911 20.4559 96.4243 20.0594 96.1147 19.9195C95.2932 19.5696 94.2454 19.5347 93.5072 19.8262Z" fill="#591516"/>
<path d="M93.3887 21.5403C92.8053 21.8434 91.0669 23.4294 91.0669 23.6626C91.0669 23.8492 91.3765 23.8142 91.7813 23.616L92.1385 23.4294V23.9075C92.1385 25.1319 92.5671 25.8316 93.6149 26.3097C94.627 26.7761 95.6034 26.6595 96.675 25.9365C97.1512 25.61 97.306 25.5517 97.3894 25.6683C97.4489 25.7616 97.4965 25.8666 97.4965 25.9132C97.4965 26.0182 96.8655 26.473 96.1392 26.8811C95.651 27.1493 95.5914 27.2193 95.7581 27.3126C96.0439 27.4642 96.8297 27.0444 97.4727 26.3913C98.0799 25.7733 98.0919 25.8316 97.3894 23.9191C97.0203 22.893 96.8059 22.4732 96.4606 22.135C95.5319 21.2021 94.4603 20.9922 93.3887 21.5403ZM94.6389 22.9046C94.8889 23.2078 94.7342 23.5926 94.3174 23.7092C93.7697 23.8725 93.7459 24.1057 94.1984 24.5489C94.7223 25.0619 95.1509 25.1669 95.8177 24.922C96.413 24.7121 96.544 24.7471 96.3535 25.0503C95.901 25.75 94.6984 25.9832 93.8054 25.5401C93.1387 25.2019 92.9243 24.8404 93.0077 24.1757C93.0553 23.7209 93.1506 23.546 93.5554 23.1845C94.0674 22.718 94.4008 22.6364 94.6389 22.9046Z" fill="#591516"/>
<path d="M87.7085 22.0773C86.9703 22.7769 86.5893 23.29 86.7203 23.4183C86.7679 23.465 86.8394 23.43 86.8751 23.3483C86.8989 23.2551 87.2918 22.8236 87.7443 22.3688C88.1967 21.9257 88.5658 21.5292 88.5658 21.5059C88.5658 21.3426 88.2682 21.5409 87.7085 22.0773Z" fill="#591516"/>
<path d="M86.9112 23.4887C86.8159 23.6054 86.804 23.6753 86.8993 23.7336C86.9588 23.7686 87.0541 23.722 87.0898 23.617C87.197 23.3605 87.0779 23.2788 86.9112 23.4887Z" fill="#591516"/>
<path d="M92.0181 26.1937C92.0181 26.4269 92.4705 26.9517 92.9587 27.2665C93.5659 27.6747 94.578 27.9195 95.1972 27.8029C95.6972 27.7096 95.6972 27.5697 95.1853 27.4764C94.7447 27.3948 92.7206 26.5668 92.2919 26.2986C92.1371 26.1937 92.0181 26.147 92.0181 26.1937Z" fill="#591516"/>
<path d="M91.3037 26.905C91.3037 27.3598 92.6492 28.386 93.4112 28.5259C94.0542 28.6425 93.9946 28.5026 93.2088 28.0945C92.8159 27.8846 92.2443 27.5114 91.9705 27.2665C91.4466 26.8234 91.3037 26.7418 91.3037 26.905Z" fill="#591516"/>
<path d="M97.0426 27.6747C96.7449 27.9896 96.7092 28.1295 96.9474 28.0362C97.1498 27.9546 97.5429 27.4065 97.3999 27.4065C97.3404 27.4065 97.1856 27.5231 97.0426 27.6747Z" fill="#591516"/>
<path d="M100.913 28.1884C101.283 29.1913 103.545 31.5702 104.676 32.1532C105.379 32.5031 105.14 32.1299 103.914 30.9871C103.223 30.3341 102.378 29.4712 102.033 29.0747C101.33 28.2701 100.783 27.8386 100.913 28.1884Z" fill="#591516"/>
<path d="M102.26 28.3743C102.26 28.7474 102.831 29.5637 103.45 30.1001C105.415 31.7794 105.772 32.0592 105.808 31.896C105.832 31.8027 105.463 31.3129 104.986 30.7998C103.831 29.5637 102.26 28.1644 102.26 28.3743Z" fill="#591516"/>
<path d="M103.448 28.6074C103.448 28.8173 103.889 29.3187 104.722 30.0534C105.222 30.4849 105.568 30.7414 105.496 30.6131C105.341 30.3333 103.448 28.4791 103.448 28.6074Z" fill="#591516"/>
<path d="M85.482 30.508C85.3986 30.9045 85.351 31.3126 85.3748 31.4409C85.3986 31.5575 85.4939 31.3126 85.5773 30.8812C85.6606 30.4497 85.7083 30.0299 85.6844 29.9483C85.6606 29.8783 85.5653 30.1232 85.482 30.508Z" fill="#591516"/>
<path d="M109.902 30.846C109.021 31.0909 108.688 31.2774 108.128 31.8722C107.545 32.4902 107.319 32.8984 107.211 33.5281L107.116 33.9945L107.462 33.6797C107.735 33.4114 107.843 33.3765 107.962 33.5047C108.069 33.5864 108.14 33.598 108.164 33.5281C108.307 33.1549 109.045 32.2103 109.438 31.9071C109.819 31.604 110.021 31.5457 110.688 31.5107C111.391 31.464 111.605 31.5107 112.522 31.8838C113.093 32.1171 113.582 32.3036 113.617 32.3036C113.832 32.3036 113.629 31.9305 113.224 31.569C112.439 30.8693 110.986 30.5544 109.902 30.846Z" fill="#591516"/>
<path d="M106.557 32.0239C106.259 32.3504 106.068 32.6886 106.068 32.8635V33.155L106.283 32.8752C106.402 32.7236 106.604 32.4204 106.723 32.2105C106.854 32.0122 106.985 31.8373 107.033 31.8373C107.08 31.8373 107.14 31.7557 107.188 31.6624C107.319 31.3242 107.045 31.4875 106.557 32.0239Z" fill="#591516"/>
<path d="M91.0669 32.2225C91.0669 32.3041 91.2098 32.654 91.3765 32.9922C91.8408 33.9017 92.9958 34.5664 94.5556 34.8113C94.7937 34.8463 95.1033 34.9979 95.2342 35.1262C95.4605 35.371 95.4724 35.371 95.4843 35.1495C95.4843 34.9862 95.5319 35.0212 95.6272 35.2778C95.8058 35.7209 96.0915 36.1523 96.2106 36.1523C96.2701 36.1523 96.3058 35.8608 96.3058 35.511C96.3058 34.9746 96.3535 34.823 96.663 34.4731C96.8655 34.2516 97.2822 33.9717 97.5918 33.8551C98.3657 33.5636 99.8302 33.5869 100.747 33.9017C101.152 34.0417 101.414 34.0883 101.39 34.0067C101.319 33.7968 100.271 33.1554 99.5445 32.8872C98.961 32.6656 98.7229 32.6423 97.8061 32.7006C97.2346 32.7473 96.6392 32.8522 96.4964 32.9455C96.0677 33.2137 94.2936 33.7035 93.7578 33.7035C93.0434 33.7035 92.0909 33.2021 91.6265 32.584C91.2336 32.0709 91.0669 31.9543 91.0669 32.2225Z" fill="#591516"/>
<path d="M110.343 32.5373C110.057 32.7005 109.629 33.7617 109.569 34.4497C109.462 35.5342 110.057 36.2339 111.2 36.3505C111.772 36.4088 111.95 36.3621 112.593 36.0473C113.427 35.6391 113.57 35.4409 113.57 34.7296C113.57 34.0532 113.26 33.5168 112.51 32.9104C111.938 32.4556 111.843 32.4206 111.212 32.4206C110.843 32.4206 110.45 32.4789 110.343 32.5373ZM111.545 35.3243C112.01 35.3709 112.2 35.4409 112.2 35.5692C112.2 35.8374 111.2 35.7907 110.795 35.4992C110.438 35.2427 110.367 35.0328 110.688 35.161C110.795 35.2077 111.188 35.2776 111.545 35.3243Z" fill="#591516"/>
<path d="M113.95 34.1823C113.961 34.3222 114.045 34.4621 114.128 34.4855C114.212 34.5204 114.235 34.4505 114.2 34.2872C114.104 33.949 113.902 33.8558 113.95 34.1823Z" fill="#591516"/>
<path d="M101.818 36.0005C100.759 36.4319 99.9965 37.05 99.7941 37.6097C99.6393 38.0412 99.675 38.7175 99.8536 38.7175C99.9012 38.7175 100.104 38.3094 100.294 37.8196C100.592 37.0733 100.735 36.8634 101.128 36.6068C101.628 36.2687 102.711 35.9188 103.247 35.9188C103.414 35.9188 103.592 35.8605 103.628 35.8022C103.783 35.569 102.556 35.6973 101.818 36.0005Z" fill="#591516"/>
<path d="M105.711 36.2224C105.711 36.2807 107.437 37.0853 107.58 37.0853C107.616 37.0853 107.58 37.0037 107.485 36.8987C107.152 36.5139 105.711 35.9542 105.711 36.2224Z" fill="#591516"/>
<path d="M114.403 37.0041C114.403 37.0274 114.57 37.1906 114.773 37.3889L115.142 37.7271L114.951 37.3422C114.844 37.144 114.677 36.9691 114.582 36.9691C114.487 36.9691 114.403 36.9807 114.403 37.0041Z" fill="#591516"/>
<path d="M114.415 37.9135L114.665 38.275L114.332 38.205C114.141 38.1817 113.808 38.1001 113.582 38.0301C112.962 37.8435 112.998 37.9718 113.653 38.2517C114.808 38.7764 115.749 38.9513 115.237 38.5665C115.141 38.4849 114.903 38.2283 114.725 37.9835C114.332 37.4704 114.034 37.3887 114.415 37.9135Z" fill="#591516"/>
<path d="M96.7687 38.2394C97.1259 38.566 97.4355 38.8108 97.4712 38.7875C97.5308 38.7292 96.5901 37.878 96.3163 37.7497C96.2091 37.703 96.4115 37.9246 96.7687 38.2394Z" fill="#591516"/>
<path d="M115.32 38.2744C115.439 38.5193 115.57 38.7175 115.63 38.7175C115.785 38.7175 115.713 38.5426 115.415 38.1928L115.118 37.8429L115.32 38.2744Z" fill="#591516"/>
<path d="M97.6147 38.9389C97.6147 38.9972 97.6743 39.0905 97.7338 39.1255C97.8053 39.1605 97.8529 39.1488 97.8529 39.0788C97.8529 39.0205 97.8053 38.9272 97.7338 38.8923C97.6743 38.8573 97.6147 38.8689 97.6147 38.9389Z" fill="#591516"/>
<path d="M101.782 41.0036C101.782 41.1318 102.651 42.2163 102.71 42.1697C102.806 42.0764 102.591 41.6216 102.294 41.2834C102.02 40.9569 101.782 40.8286 101.782 41.0036Z" fill="#591516"/>
<path d="M68.921 27.8843C68.6947 28.0009 68.5756 28.1058 68.659 28.1058C68.8376 28.1058 69.5165 27.7793 69.5165 27.6977C69.5165 27.5927 69.3497 27.651 68.921 27.8843Z" fill="#591516"/>
<path d="M69.4562 28.5726C69.0633 28.7591 68.5989 28.9107 68.4203 28.9224C68.2298 28.9224 68.0869 28.9807 68.0869 29.0507C68.0869 29.4005 70.2063 28.7475 70.3254 28.3627C70.3849 28.1644 70.2777 28.1877 69.4562 28.5726Z" fill="#591516"/>
<path d="M65.7052 29.1557C65.7052 29.3423 66.3124 29.5872 67.1459 29.7271C68.0865 29.8787 68.1222 29.8787 68.0389 29.7505C68.0032 29.6922 67.765 29.6105 67.5269 29.5639C67.2769 29.5172 66.7768 29.389 66.4196 29.2607C65.6576 29.0041 65.7052 29.0041 65.7052 29.1557Z" fill="#591516"/>
<path d="M50.6556 26.4156C50.4056 26.5089 50.1436 26.6372 50.096 26.7188C49.9769 26.9171 50.0841 27.4768 50.3579 28.0016C50.608 28.503 50.7866 28.6546 51.1795 28.7129C51.4534 28.7479 51.4772 28.7012 51.5129 28.2814C51.5724 27.6401 51.4295 26.6605 51.2629 26.439C51.1319 26.2757 51.0604 26.2757 50.6556 26.4156Z" fill="#591516"/>
<path d="M62.1922 31.9193C61.6087 33.5985 61.5492 33.8317 61.6683 33.7618C61.9659 33.5752 62.728 31.6394 62.728 31.0564C62.728 30.6482 62.5018 31.0097 62.1922 31.9193Z" fill="#591516"/>
<path d="M75.5404 31.954C75.3141 34.4961 74.8617 36.7934 74.3497 37.9245C73.9925 38.7175 74.1354 38.8225 74.5759 38.0878C75.4332 36.6535 75.8261 34.916 75.8142 32.5954C75.8023 31.0211 75.6475 30.6596 75.5404 31.954Z" fill="#591516"/>
<path d="M61.2875 31.4296C61.1804 31.6162 61.0018 32.3392 60.8946 33.0272C60.7755 33.7152 60.585 34.6365 60.4659 35.0679C60.2278 35.9075 60.2397 36.0941 60.5255 35.7326C61.0494 35.0329 61.2994 34.3099 61.4304 33.0972C61.5018 32.4092 61.5376 31.6745 61.5137 31.4646L61.478 31.0798L61.2875 31.4296Z" fill="#591516"/>
<path d="M60.1937 33.1552C60.0985 33.5516 59.9318 34.193 59.8246 34.5778C59.7293 34.9627 59.646 35.569 59.646 35.9189L59.6579 36.5602L59.8365 35.9772C59.9318 35.6507 60.1104 35.0559 60.2413 34.6361C60.539 33.7149 60.67 32.5954 60.4914 32.4905C60.4199 32.4555 60.3009 32.7237 60.1937 33.1552Z" fill="#591516"/>
<path d="M74.3499 34.9512C73.957 36.8403 73.3736 38.1813 72.1829 39.9888C71.8257 40.5252 71.5518 40.98 71.5757 41.0034C71.5995 41.0267 71.8019 40.9217 72.04 40.7585C72.5401 40.4203 73.5045 39.2192 73.826 38.5079C74.2666 37.54 74.9214 33.9367 74.6595 33.9367C74.6119 33.9367 74.469 34.3914 74.3499 34.9512Z" fill="#591516"/>
<path d="M69.5399 34.9046C69.3375 35.0562 68.5279 35.4527 67.7539 35.7909C66.1108 36.4905 65.325 37.0736 63.8009 38.7295C62.8841 39.709 62.8841 39.9306 63.8009 39.126C64.3248 38.6479 65.6107 37.9015 67.111 37.1902C68.635 36.4556 69.2304 35.9774 69.7423 35.1029C69.8852 34.8463 69.9924 34.6364 69.9686 34.6364C69.9448 34.6364 69.7543 34.7647 69.5399 34.9046Z" fill="#591516"/>
<path d="M57.5624 37.2949C57.5267 37.3182 57.7172 37.4931 57.9791 37.6564C58.2411 37.8313 58.8245 38.321 59.277 38.7525C60.3843 39.8137 60.6224 39.8137 60.0033 38.7758C59.408 37.773 59.0627 37.5164 58.0625 37.3182C57.8125 37.2715 57.5862 37.2599 57.5624 37.2949Z" fill="#591516"/>
<path d="M55.7029 38.2747L55.2861 38.5429L56.1791 38.6013C57.6198 38.7062 58.4176 39.2776 59.1677 40.7119C59.6321 41.6332 59.8107 41.6098 59.7154 40.642C59.5964 39.4409 59.1439 38.7762 58.1199 38.2631C57.4174 37.9132 56.2744 37.9249 55.7029 38.2747Z" fill="#591516"/>
<path d="M56.084 39.8838C55.5244 40.012 55.1553 40.3969 54.679 41.3648C54.4409 41.8429 54.1908 42.216 54.0956 42.216C54.0003 42.216 53.917 42.251 53.917 42.2976C53.917 42.4842 54.7147 43.7786 54.8933 43.8836C55.1672 44.0585 55.4291 43.9069 55.5244 43.5221C55.5958 43.2072 55.6435 43.1722 56.2626 43.1023C56.6198 43.0673 57.0246 42.974 57.1556 42.904C57.4652 42.7408 57.5485 42.8341 57.3461 43.1373C57.1794 43.4055 56.8222 43.5571 56.1674 43.6737C55.5482 43.767 55.3815 44.0002 55.7506 44.2451C56.4174 44.6649 57.6914 44.2567 58.1082 43.4988C58.4058 42.9857 58.3344 41.8778 57.9653 40.91C57.5724 39.8838 57.1318 39.6389 56.084 39.8838Z" fill="#591516"/>
<path d="M61.9193 41.8427C61.8241 41.9127 61.9431 42.0526 62.336 42.2975C62.6456 42.4958 62.9195 42.6474 62.9433 42.624C62.9671 42.6124 62.8838 42.4025 62.7647 42.1692C62.5504 41.7611 62.2527 41.6445 61.9193 41.8427Z" fill="#591516"/>
<path d="M57.5504 45.0147C57.3598 45.0963 57.3479 45.1197 57.5147 45.1197C57.6219 45.1313 57.7529 45.073 57.7886 45.0147C57.872 44.8864 57.872 44.8864 57.5504 45.0147Z" fill="#591516"/>
<path d="M53.9649 45.4111C53.6196 45.6677 53.8101 45.726 54.3698 45.5277C54.6555 45.4345 55.0127 45.3995 55.1913 45.4345C55.4056 45.4928 55.4771 45.4811 55.4175 45.3761C55.2985 45.1896 54.2507 45.2129 53.9649 45.4111Z" fill="#591516"/>
<path d="M54.3093 46.3557C53.964 46.5073 53.6782 46.6938 53.6782 46.7522C53.6782 47.0553 54.4998 46.7522 54.9165 46.309C55.2023 45.9942 55.0832 46.0058 54.3093 46.3557Z" fill="#591516"/>
<path d="M58.6808 46.601C58.0736 47.2074 56.6448 48.1053 56.1209 48.2219C55.8351 48.2919 55.9065 48.2102 56.4662 47.8604C56.8472 47.6155 57.1091 47.3939 57.0496 47.3823C56.9781 47.359 56.5257 47.4989 56.0256 47.6971C54.4182 48.3268 54.2039 48.3385 51.132 47.977C50.5604 47.907 50.4414 47.9187 50.489 48.0586C50.5604 48.2802 51.8583 48.4901 53.7038 48.5834C56.2876 48.7233 57.7878 48.1986 58.9428 46.7876C59.681 45.8896 59.5024 45.773 58.6808 46.601Z" fill="#591516"/>
<path d="M52.8221 47.0789C52.8935 47.1023 53.0365 47.1023 53.1198 47.0789C53.1913 47.0438 53.1317 47.0204 52.965 47.0204C52.7983 47.0204 52.7387 47.0438 52.8221 47.0789Z" fill="#591516"/>
<path d="M54.8454 28.5379C54.4167 28.9927 54.1548 29.5525 54.1548 30.0539C54.1548 30.4154 54.3453 30.3105 54.4525 29.8906C54.5596 29.4592 54.8573 28.8295 55.1311 28.4213C55.4407 27.9899 55.3574 28.0249 54.8454 28.5379Z" fill="#591516"/>
<path d="M58.109 50.6469C57.5732 50.9617 57.1446 51.2533 57.1803 51.2766C57.2756 51.3815 58.6567 50.7052 58.9306 50.4253C59.0735 50.2737 59.1806 50.1338 59.1449 50.1105C59.1211 50.0871 58.6567 50.332 58.109 50.6469Z" fill="#591516"/>
<path d="M54.751 51.1252C54.751 51.2185 55.5011 51.545 55.7035 51.545C55.9297 51.545 55.8226 51.3351 55.5606 51.2768C55.4058 51.2419 55.1677 51.1719 55.0248 51.1369C54.87 51.0903 54.751 51.0903 54.751 51.1252Z" fill="#591516"/>
<path d="M56.2631 51.16C56.2154 51.195 56.1797 51.2883 56.1797 51.3582C56.1797 51.4282 56.2392 51.4165 56.3226 51.3349C56.3941 51.2649 56.4298 51.1717 56.406 51.1367C56.3702 51.1017 56.2988 51.1133 56.2631 51.16Z" fill="#591516"/>
<path d="M37.772 3.29105C37.772 4.93528 37.7482 5.04023 36.9862 7.38414C36.5456 8.7485 36.4742 8.87677 36.248 8.81847C36.1051 8.79515 35.2716 8.55026 34.3905 8.28205C32.2473 7.65235 31.4019 7.2442 30.8661 6.55619L30.4256 6.00811L30.497 6.47456C30.6161 7.1859 31.3543 8.55026 32.0092 9.24993C32.3426 9.59977 32.6045 9.91462 32.6045 9.94961C32.6045 9.98459 32.4259 9.96127 32.2235 9.90296C32.0092 9.84465 31.3543 9.79801 30.759 9.79801L29.6874 9.78635L28.6158 8.45697C27.3894 6.92935 26.925 6.1014 26.4606 4.57378L26.1273 3.48929L25.7105 3.52427C24.4841 3.62923 23.2816 6.91769 23.4721 9.61143C23.5435 10.6959 23.7578 11.279 24.2579 11.9087L24.6032 12.3168L23.3292 12.8183C22.5791 13.1215 21.7932 13.343 21.3884 13.3897C21.0074 13.413 20.6978 13.483 20.6978 13.5296C20.6978 13.6812 21.9123 14.1127 22.6624 14.2293C23.0553 14.2876 23.7102 14.3459 24.1269 14.3459C24.5318 14.3459 24.8651 14.3925 24.8651 14.4508C24.8651 14.5791 23.3054 16.0718 22.4719 16.7598C22.1742 17.0046 21.7456 17.4011 21.5313 17.646C20.793 18.474 19.6381 18.8471 18.5189 18.6256C17.864 18.4973 18.0545 18.7305 18.8642 19.0803C20.1501 19.6401 22.1028 19.5351 23.5078 18.8355C23.8293 18.6839 24.1031 18.5672 24.1269 18.5906C24.1507 18.6139 24.0079 18.8938 23.8054 19.2086C23.603 19.5235 23.3768 20.0599 23.3054 20.3864C23.1744 20.9345 23.103 21.0161 22.46 21.4009C21.7456 21.8441 21.2693 22.4621 21.1145 23.1734C21.0074 23.6982 21.2217 24.7011 21.6622 25.6806L22.0313 26.5202L21.8408 27.2082C21.5789 28.1178 21.0788 29.0857 20.2453 30.3218C19.6262 31.243 19.2452 31.7561 17.0782 34.6364C15.816 36.304 14.8159 37.2485 13.7681 37.715C12.8513 38.1348 12.3393 38.5662 12.1369 39.1027C11.8987 39.709 11.9821 41.0501 12.3036 41.9597C12.625 42.8459 12.6727 43.324 12.4822 43.4406C12.2083 43.6039 12.3631 44.3619 12.8513 45.1432L13.3275 45.9361L13.137 46.6358C12.8751 47.5104 12.9703 48.0352 13.4585 48.5832C13.8872 49.0613 14.4349 49.3529 15.2802 49.5628L15.8756 49.7027L15.8399 50.1925C15.8041 50.6356 15.8518 50.7406 16.3399 51.2653C16.709 51.6851 17.1496 51.9883 17.8045 52.2915C18.3165 52.5364 18.8999 52.8163 19.0904 52.9095C19.2928 53.0145 19.9834 53.1311 20.6978 53.1778C21.3884 53.2244 22.1028 53.3293 22.2814 53.3993C22.6743 53.5509 22.841 53.4809 22.841 53.1778C22.841 53.0028 23.0791 52.8396 23.7221 52.5364C24.5198 52.1749 25.2343 51.5802 25.3652 51.1837C25.4009 51.0671 25.5319 51.0671 25.9129 51.1604L26.413 51.2886V50.5656C26.413 49.726 26.6511 48.7931 26.9845 48.2451C27.4132 47.592 28.9849 46.4376 30.5327 45.6796C31.1995 45.3531 33.4737 44.4318 33.6166 44.4318C33.7237 44.4318 34.4143 46.7174 34.5691 47.5804C34.8192 48.9914 34.7953 51.6968 34.5096 53.8191C34.1762 56.2913 33.688 57.9938 32.9617 59.1366C32.7593 59.4631 32.6164 59.7547 32.6521 59.7897C32.8426 59.9762 34.7001 57.4458 35.3431 56.128C35.6169 55.58 35.855 55.1602 35.8908 55.1951C35.9622 55.2651 35.3192 57.7723 34.9858 58.7052C34.8549 59.09 34.7715 59.4165 34.7953 59.4398C34.8787 59.5331 35.4264 58.7285 35.986 57.679C36.6171 56.5129 37.1886 55.1718 37.772 53.5276C38.2364 52.2099 38.9032 50.6006 39.046 50.4374C39.2604 50.2158 39.1294 50.6823 38.2483 53.2011C36.629 57.8422 36.3551 58.7402 36.6409 58.4836C36.8314 58.297 38.415 54.8803 38.8198 53.7608C39.0222 53.2127 39.6533 51.8251 40.2367 50.6706C41.3202 48.5133 42.1299 46.6825 42.4514 45.6563C42.6895 44.8983 42.8562 44.7234 42.7133 45.3764C42.4871 46.3793 41.8917 47.9302 40.7011 50.6706C40.0819 52.0583 38.9032 55.3001 38.9746 55.3701C39.0222 55.4284 39.689 54.0873 40.9392 51.4286C41.2607 50.7522 41.9394 49.3062 42.4633 48.2217C43.4277 46.2043 44.4755 43.3707 45.0946 41.0967C45.7495 38.7062 45.8686 38.7178 45.3566 41.1201C44.9875 42.7876 44.3683 44.9449 43.5587 47.4054C43.2967 48.1634 43.1062 48.8165 43.13 48.8281C43.1896 48.8864 43.7611 47.6737 44.2731 46.4142C45.2732 43.9421 45.9519 41.9713 46.2258 40.6886C46.4877 39.4292 46.8926 38.368 47.1069 38.368C47.1545 38.368 47.2974 38.1814 47.4284 37.9482C47.7022 37.4351 48.7857 36.4556 49.393 36.1524C50.0597 35.8259 50.3098 35.3944 50.5717 34.1117C50.7146 33.482 50.8099 32.9572 50.798 32.9339C50.7741 32.9222 50.4527 32.7706 50.0597 32.6074C49.5954 32.3975 49.0596 32.0126 48.4047 31.4063C47.607 30.6366 47.3688 30.3334 46.9521 29.4472C46.6663 28.8641 46.4044 28.1644 46.3568 27.8846C46.3091 27.6047 46.1901 27.1966 46.1067 26.9867C45.9162 26.5435 45.8805 25.0042 46.0472 24.5728C46.1067 24.4212 46.4401 23.9781 46.7735 23.6049C47.1188 23.2317 47.5474 22.6837 47.7498 22.4038C48.1666 21.7974 48.1428 21.7274 47.214 20.6779L46.6068 20.0016L47.1783 20.5263C47.4879 20.8179 47.857 21.2143 47.988 21.4126L48.2499 21.7857L48.75 21.3659C49.0358 21.1444 49.5716 20.7945 49.9526 20.5963C50.4646 20.3281 50.7146 20.1065 50.9289 19.7217C51.0837 19.4418 51.3695 19.127 51.5481 19.022C51.7386 18.9171 51.8934 18.8005 51.8934 18.7422C51.8934 18.5672 51.1075 18.1941 50.0121 17.8326C48.9167 17.4711 48.8691 17.4478 47.7022 16.3166C47.0473 15.6869 46.4401 15.1622 46.3449 15.1622C46.2496 15.1622 46.1782 15.1039 46.1782 15.0339C46.1782 14.929 46.4163 14.9173 46.9878 14.9756C47.4284 15.0106 48.1666 15.0805 48.619 15.1155L49.4525 15.1855L48.4404 14.4975C47.3212 13.7278 46.1782 13.2381 45.2375 13.1098C44.5827 13.0282 44.4874 12.8766 44.8684 12.5384C45.6304 11.862 45.7257 9.36655 45.047 8.06049C44.916 7.8156 44.8922 7.88557 44.8327 8.70185C44.797 9.21495 44.6779 9.87964 44.5708 10.1945C44.3564 10.8009 43.8206 11.7221 43.7254 11.6288C43.7016 11.6055 43.6539 11.0924 43.6182 10.486C43.4991 7.88557 42.3442 5.42505 40.1534 3.04617C39.439 2.26486 38.6293 1.75177 38.1411 1.75177H37.7839L37.772 3.29105ZM39.9867 4.73704C40.5939 5.42505 41.4988 6.87104 41.8084 7.6057C42.5942 9.5298 42.6538 11.5006 42.0108 13.9377C41.7131 15.0805 41.6536 15.4654 41.7131 16.0601C41.8084 16.9697 42.0942 17.2845 42.1061 16.4916C42.1061 16.1884 42.1656 15.8968 42.2251 15.8385C42.3561 15.7103 42.4156 16.0601 42.5466 17.5527C42.5942 18.2174 42.7133 18.5906 43.1896 19.5351C43.523 20.1765 43.7492 20.7246 43.7254 20.7596C43.6897 20.7829 43.3682 20.503 43.011 20.1299C42.6538 19.7567 42.3204 19.4768 42.2847 19.5235C42.2013 19.5934 42.8919 20.3631 43.4158 20.7945C43.7016 21.0278 44.1897 21.7974 44.3922 22.3338C44.4993 22.6254 44.4041 22.5671 43.8325 21.9723C43.1062 21.2143 42.0465 20.3398 41.9513 20.433C41.9275 20.4564 42.3561 21.0744 42.9157 21.8091C43.8206 22.9985 44.5112 24.083 44.5112 24.3396C44.5112 24.3862 44.3326 24.188 44.1302 23.8964C43.4158 22.9285 42.2847 21.8091 42.0108 21.8091C41.8441 21.8091 41.987 22.0773 42.7847 23.1618C43.6063 24.2812 45.1423 27.0566 44.9399 27.0566C44.916 27.0566 44.6303 26.6252 44.2969 26.0887C43.9635 25.564 43.4515 24.8526 43.1539 24.5028C42.5942 23.8381 41.6655 23.0452 41.5584 23.1501C41.5226 23.1851 41.6536 23.4067 41.856 23.6515C42.0465 23.8848 42.5228 24.5844 42.9038 25.1908C43.2848 25.7972 43.6658 26.3803 43.7492 26.4736C44.1659 26.975 45.2256 29.4822 45.2256 30.0069C45.2256 30.0652 44.9518 29.5754 44.6184 28.9108C44.285 28.2461 43.7849 27.3831 43.4991 26.9983C42.9872 26.2986 41.7727 25.0625 41.7727 25.2375C41.7727 25.2841 42.3442 26.182 43.0467 27.2082C44.4398 29.2723 44.7732 29.9603 44.9994 31.1847C45.1542 32.1176 45.0827 35.3011 44.8803 35.8608C44.8089 36.0474 44.6422 36.5722 44.4993 37.0036C44.2016 37.9365 43.1419 39.5808 42.2966 40.3971C41.5703 41.0967 40.9273 41.5399 39.9629 41.983C38.9865 42.4378 38.5698 42.4378 39.4271 41.983C41.3321 40.9918 42.6895 39.8257 43.2372 38.7062C43.6777 37.8199 43.7968 37.0853 43.8563 34.8113C43.9159 32.6657 43.904 32.689 43.4277 35.5576C43.1658 37.1203 42.8205 38.1115 42.2132 38.9744C41.7846 39.6041 41.5107 39.7324 41.8679 39.1493C42.4156 38.2281 42.9753 36.234 42.9514 35.2428C42.9514 34.8696 42.9157 34.9163 42.7133 35.6276C42.3085 37.0619 41.1773 39.1376 40.2962 40.0939C39.8676 40.5603 39.5104 40.9101 39.5104 40.8752C39.5104 40.8285 39.7604 40.467 40.07 40.0589C40.6415 39.3009 41.6417 37.1319 41.6536 36.6305C41.6536 36.4206 41.5822 36.4905 41.3321 36.9453C40.2724 38.8694 37.6291 41.7847 36.629 42.1346C36.3075 42.2512 36.367 42.1929 37.0457 41.7031C37.903 41.0851 39.0222 39.709 39.6176 38.5313C39.8914 37.9832 40.1057 37.4934 40.0819 37.4234C40.0581 37.3651 39.82 37.6217 39.5461 38.0065C38.0459 40.0822 35.9146 41.6215 31.902 43.5223C30.3541 44.2686 30.8304 43.8954 32.545 43.0325C35.1644 41.7031 35.5574 41.4582 36.7599 40.3154C37.3791 39.7324 38.6769 37.9249 38.6769 37.645C38.6769 37.575 38.153 38.0415 37.522 38.6712C36.2122 39.9772 35.4978 40.502 33.2594 41.8081C32.414 42.3095 31.5567 42.8342 31.3543 42.9742C30.8066 43.3707 30.5923 43.4406 30.9971 43.1025C31.1995 42.9392 31.7472 42.5427 32.2235 42.2395C32.6998 41.9363 33.4499 41.4582 33.8904 41.19C34.9978 40.4787 36.0694 39.4175 36.8433 38.2864C37.2005 37.75 37.522 37.2252 37.5696 37.1203C37.6053 37.0036 37.0576 37.4701 36.3432 38.1464C34.6882 39.744 34.4739 39.9073 32.926 40.9218C32.2116 41.3883 31.4257 41.9597 31.1638 42.1812C30.9018 42.4144 30.6637 42.5777 30.628 42.5427C30.5089 42.4261 31.6162 41.4699 32.6045 40.8285C33.1641 40.467 33.9738 39.814 34.4262 39.3709C35.2002 38.5779 36.3908 37.027 36.2837 36.922C36.2599 36.887 35.7717 37.2952 35.224 37.8199C34.1524 38.8344 32.6045 40.1172 31.5686 40.8518C31.2352 41.0967 30.7947 41.4699 30.5923 41.7031C30.3899 41.9247 30.2232 42.0529 30.2232 41.983C30.2232 41.8314 30.7709 40.9801 30.9376 40.8752C31.1043 40.7702 31.0924 40.5836 30.9018 40.5836C30.7232 40.5836 30.1041 41.4815 30.1041 41.7498C30.1041 41.8547 29.9136 42.2162 29.6874 42.566C29.4611 42.9159 29.2349 43.3007 29.1992 43.4173C29.1635 43.5339 29.1039 43.6156 29.0801 43.5806C29.0444 43.5572 29.1039 43.3007 29.1992 43.0208C29.5207 42.0763 29.7231 41.1667 29.6159 41.1667C29.5564 41.1667 29.5088 41.2133 29.5088 41.26C29.5088 41.3183 29.3778 41.5165 29.2111 41.6915C29.0563 41.878 28.8063 42.3445 28.6634 42.7293C28.2466 43.8604 27.4013 45.3181 26.6631 46.1577C26.2939 46.5892 25.9367 47.0206 25.8534 47.1256C25.7701 47.2189 25.6153 47.7436 25.5081 48.2917C25.1985 49.761 24.9128 50.3091 24.1507 50.8688C23.6626 51.2303 22.0552 51.93 21.8527 51.86C21.7813 51.8367 22.1861 51.5685 22.7577 51.2537C23.984 50.5773 24.6032 50.0992 24.758 49.7027C24.9366 49.2596 24.8056 49.2712 24.5079 49.7377C24.3651 49.9709 24.2222 50.1342 24.1865 50.0992C24.1507 50.0759 24.246 49.9009 24.377 49.7144C24.5079 49.5395 24.7818 48.9097 24.9604 48.3383C25.2819 47.3705 25.3652 47.2189 26.1511 46.4142C27.2346 45.3181 27.2941 45.1082 26.3654 45.6446C25.5676 46.1111 24.7342 47.4171 24.5198 48.5599C24.4484 48.9331 24.2936 49.3879 24.1865 49.5744C23.9126 49.9826 22.9839 50.6939 22.0671 51.1953C21.6741 51.4052 21.2931 51.6501 21.2098 51.7434C21.1264 51.8484 20.924 51.895 20.674 51.8717L20.2811 51.8367L21.4122 50.7289C22.841 49.3412 23.2935 48.7815 23.8531 47.7553C24.5198 46.5425 25.3176 45.423 25.7224 45.1315C26.0677 44.8866 26.1273 44.875 27.056 45.0382C27.3179 45.0732 27.5322 44.5484 27.4251 44.1286C27.2703 43.4873 25.8534 43.324 25.0557 43.8604C24.6389 44.1403 23.9364 45.0849 23.3649 46.181C22.9243 46.9973 21.817 48.1051 21.1383 48.3967C20.4001 48.7115 19.3166 48.8398 18.3522 48.7232C17.9116 48.6649 16.9353 48.5482 16.1971 48.4666C14.6373 48.2917 14.3872 48.1401 14.3872 47.4404C14.3872 46.939 14.3872 46.9273 14.8873 47.1839C15.5303 47.5104 17.4115 47.7086 18.5546 47.557C20.293 47.3471 20.293 47.2305 18.5546 47.2772C17.1734 47.3238 15.0659 47.1955 15.9351 47.1256C16.209 47.1023 16.2209 47.0906 15.9946 46.9973C15.8637 46.939 15.5898 46.8924 15.3874 46.8924C14.9945 46.8807 14.3872 46.4959 14.5301 46.3559C14.5777 46.3093 14.804 46.3559 15.0302 46.4609C15.4827 46.6708 15.697 46.6941 15.697 46.5425C15.697 46.4842 15.4707 46.3326 15.1969 46.2043C14.7206 45.9944 14.0538 45.3064 14.1848 45.1782C14.2205 45.1432 14.423 45.2714 14.6373 45.458C15.0183 45.7729 15.4827 46.0644 15.6255 46.0644C15.7446 46.0644 14.6849 45.1782 14.1729 44.8633C13.8633 44.6651 13.6728 44.4552 13.6728 44.3152C13.6728 44.1986 13.9705 43.7671 14.3277 43.3823C15.1255 42.4961 15.2088 42.2862 14.8754 41.878C14.7444 41.7148 14.5182 41.3649 14.3753 41.1084C14.0181 40.4437 13.7919 40.2338 13.4704 40.2338C13.2442 40.2338 13.1966 40.1755 13.1966 39.9073C13.1966 39.3825 13.4942 39.1027 14.3515 38.8228C15.5779 38.438 16.2923 37.6683 20.0548 32.7123C21.5075 30.7882 22.3766 29.4705 23.1387 28.0362C23.734 26.905 23.8293 26.6252 23.9245 25.7622C23.984 25.2258 24.0555 24.6894 24.0793 24.5844C24.2103 24.048 23.6268 24.5028 23.4006 25.1092C23.2458 25.5057 23.0315 25.2491 22.8172 24.4212C22.4957 23.1851 22.5076 23.1151 23.2816 22.4504C23.6626 22.1356 24.3174 21.5292 24.758 21.1094C25.5081 20.3747 26.282 19.6751 27.3417 18.7422C27.8418 18.299 28.0085 18.369 27.7108 18.9054C27.3179 19.6284 27.1155 22.602 27.3656 24.0713C27.4846 24.7827 28.1038 26.2403 28.2943 26.2403C28.3538 26.2403 28.4014 25.8322 28.3895 25.3308C28.3895 24.2463 28.6634 23.4766 29.5088 22.2405C30.0803 21.4126 32.2592 19.127 32.4854 19.127C32.6998 19.127 32.6045 19.2669 31.8901 20.0249C31.1162 20.8295 30.9495 21.3076 31.4734 21.1794C32.5331 20.9228 34.9025 18.9404 35.5931 17.7393C35.7479 17.4828 35.9027 17.2612 35.9384 17.2612C35.9741 17.2612 36.0694 17.5061 36.1527 17.7976C36.498 19.057 37.7363 21.1211 38.4031 21.5525L38.6769 21.7158L38.3554 20.8645C38.0935 20.1299 38.0459 19.745 37.9863 18.2524C37.9149 16.0134 37.9387 15.8968 38.3078 16.5032C38.6174 17.0046 40.2605 18.7188 40.6177 18.9054C40.832 19.022 40.832 19.0104 40.6296 18.6955C40.5106 18.5206 40.2724 18.1824 40.0938 17.9609C39.0699 16.6315 38.1173 15.0339 39.0222 16.1417C39.4151 16.6198 40.3081 17.4944 40.4153 17.4944C40.4867 17.4944 40.1653 16.8997 38.9389 14.7307C37.8911 12.9116 37.7125 12.3285 37.641 10.7892C37.5815 9.40153 37.641 9.09834 38.4269 6.70779C38.6412 6.06642 38.8436 5.20349 38.8793 4.78368C38.9627 3.66421 38.9984 3.61757 39.3675 4.04903C39.5461 4.24727 39.82 4.56212 39.9867 4.73704ZM25.9487 6.57951C26.2225 7.11593 26.6511 7.82726 26.925 8.1771C27.6037 9.05169 28.199 10.0312 28.199 10.2878C28.199 10.4161 28.1157 10.4977 27.9609 10.4977C27.6751 10.4977 26.4964 8.76016 25.9129 7.48909C25.7105 7.0343 25.4962 6.64948 25.4486 6.64948C25.2938 6.64948 25.0795 7.76896 25.0199 8.86511C24.9842 9.57645 25.0199 10.2528 25.1271 10.7659C25.3176 11.6521 25.2581 11.6521 24.889 10.7659C24.4246 9.69306 24.5675 7.40746 25.1866 6.03144C25.2938 5.79821 25.4009 5.59997 25.4248 5.59997C25.4486 5.59997 25.6867 6.0431 25.9487 6.57951ZM33.1998 11.349C33.4261 11.4539 33.5094 11.5239 33.3784 11.4889C33.2475 11.4539 32.5569 11.4189 31.8306 11.4189C30.7947 11.3956 30.4375 11.4306 30.1279 11.5938C29.9017 11.7104 29.6635 11.7688 29.5802 11.7454C29.4969 11.7104 29.354 11.7338 29.2587 11.8037C29.1397 11.8854 29.3302 11.897 29.866 11.862C30.2946 11.8271 30.9138 11.8504 31.2352 11.897L31.8306 11.9787L31.271 12.002C30.1636 12.0253 27.8775 12.3751 26.8536 12.6667C26.282 12.8299 25.7581 12.9465 25.6748 12.9232C25.5438 12.8766 28.4491 11.6755 29.6278 11.2906C30.4732 11.0224 32.5569 11.0574 33.1998 11.349ZM34.6286 12.76C34.6286 12.7833 34.2119 13.1098 33.7118 13.483C32.0449 14.6957 30.4256 16.4566 29.3897 18.1591C29.1039 18.6256 28.8658 19.0104 28.842 19.0104C28.8301 19.0104 28.9253 18.7422 29.0444 18.4157C29.9255 16.1534 31.1876 14.754 33.7118 13.2264C34.5691 12.7133 34.6286 12.6783 34.6286 12.76ZM29.7469 13.1098C29.7469 13.1914 27.9014 14.3109 27.0322 14.7657C26.5559 15.0106 25.8653 15.4537 25.4962 15.7452C24.4127 16.5965 24.3055 16.6548 24.7699 16.0834C25.6867 14.9989 27.4727 13.7745 28.7944 13.3314C29.5921 13.0632 29.7469 13.0282 29.7469 13.1098ZM31.1757 13.6929C31.1757 13.7162 30.8899 13.9144 30.5566 14.1476C29.9136 14.5675 27.4251 16.6198 26.3654 17.5994L25.782 18.1358L26.3654 17.3778C27.7228 15.6053 29.5207 14.136 30.8066 13.7628C30.9733 13.7045 31.1281 13.6579 31.1519 13.6579C31.1638 13.6462 31.1757 13.6695 31.1757 13.6929ZM34.6167 14.9406C34.0928 15.5936 33.307 16.3633 31.7234 17.7743C31.0209 18.4157 30.2232 19.2203 29.9612 19.5818C29.2468 20.5497 29.1873 20.5613 29.6874 19.6517C30.3184 18.5089 31.0804 17.5061 31.3305 17.4944C31.4853 17.4944 31.521 17.4244 31.4734 17.2262C31.4138 17.0163 31.5329 16.7714 31.9615 16.2233C32.2592 15.8269 32.545 15.5237 32.5688 15.5587C32.6045 15.5936 32.4378 15.9202 32.1997 16.2817C31.9734 16.6548 31.7948 16.9813 31.8306 17.0046C31.9139 17.0863 32.5212 16.5848 33.7952 15.4187C34.4143 14.8357 34.9501 14.3925 34.9739 14.4159C34.9978 14.4275 34.8311 14.6724 34.6167 14.9406ZM46.7735 16.6898C47.3807 17.2146 47.2021 17.1796 46.4758 16.6198C46.2139 16.4216 45.7971 16.1301 45.559 15.9901C45.309 15.8385 45.1066 15.6986 45.1066 15.6753C45.1066 15.5353 46.2972 16.2583 46.7735 16.6898ZM34.7001 16.7131C34.3667 17.4011 33.688 18.369 33.6047 18.2757C33.5689 18.2524 33.7595 17.9026 34.0214 17.5177C34.2834 17.1329 34.5929 16.6315 34.712 16.3983C34.8192 16.165 34.9263 16.0018 34.962 16.0251C34.9858 16.0484 34.8668 16.3633 34.7001 16.7131ZM43.3325 18.369C43.5825 19.0687 43.773 19.6517 43.7492 19.6751C43.6897 19.745 43.2848 19.162 42.9991 18.6022C42.7252 18.0658 42.5109 16.7714 42.7252 16.9813C42.7966 17.0513 43.0705 17.681 43.3325 18.369ZM49.3573 34.3099C49.3215 34.4032 49.2858 34.3682 49.2858 34.2399C49.2739 34.1117 49.3096 34.0417 49.3453 34.0883C49.3811 34.1233 49.393 34.2283 49.3573 34.3099Z" fill="#591516"/>
<path d="M38.9985 7.10387C38.2127 10.1708 38.2722 11.6751 39.2843 13.9607C39.7248 14.9402 40.3797 16.0947 40.5107 16.0947C40.5345 16.0947 40.5583 15.8614 40.5583 15.5816C40.5702 15.3017 40.7369 14.5787 40.9512 13.984C41.749 11.6634 41.7728 9.72764 41.0465 7.76856C40.6297 6.63742 39.8201 5.36634 39.5224 5.36634C39.4867 5.36634 39.2366 6.14765 38.9985 7.10387Z" fill="#591516"/>
<path d="M37.0093 21.7506C37.0093 21.7739 37.2593 21.9605 37.557 22.1587C38.1047 22.5319 38.3666 22.5552 38.0809 22.217C37.8189 21.9138 37.0093 21.5523 37.0093 21.7506Z" fill="#591516"/>
<path d="M32.7822 22.8467C32.5203 22.9634 32.0202 23.2782 31.663 23.5348C31.3177 23.803 30.8772 24.0479 30.6866 24.0828C30.4009 24.1411 30.3414 24.2228 30.3414 24.491C30.3414 24.6659 30.4247 24.8758 30.52 24.9574C30.77 25.1673 30.7462 25.4589 30.4128 26.1119C30.0794 26.7533 28.8173 27.9427 27.8767 28.4908C27.5314 28.7007 27.2456 28.9106 27.2456 28.9689C27.2456 29.1671 28.1505 28.9222 28.9602 28.5141C29.4126 28.2809 29.8055 28.1176 29.8294 28.1526C29.8651 28.1876 29.746 28.4558 29.5674 28.7473C29.2936 29.2254 29.2817 29.2721 29.4841 29.1671C29.8532 28.9689 30.5676 27.8261 31.1867 26.4267C31.8535 24.9458 32.3179 24.4327 33.4133 24.0012C33.9372 23.803 34.342 23.7447 35.1636 23.7447C36.128 23.733 36.3423 23.7796 37.3068 24.1528C38.6999 24.7125 38.9499 24.7825 38.9023 24.6193C38.807 24.3744 37.533 23.4298 36.7829 23.0567C36.0685 22.7185 35.9137 22.6835 34.6397 22.6602C33.5085 22.6368 33.1751 22.6718 32.7822 22.8467Z" fill="#591516"/>
<path d="M34.0929 24.1878C32.9498 24.5376 32.3068 25.109 31.8306 26.1818C31.652 26.5666 31.4377 27.0214 31.3424 27.1963C31.1757 27.5112 31.1162 28.1759 31.2472 28.5024C31.2948 28.6074 31.4615 28.689 31.652 28.689C31.8425 28.689 32.033 28.7356 32.0687 28.8056C32.1044 28.8639 32.1997 28.9222 32.2711 28.9222C32.3426 28.9222 32.283 28.7939 32.1282 28.6307C31.9735 28.4674 31.8663 28.3391 31.902 28.3391C31.9258 28.3391 32.4021 28.5024 32.9617 28.689C33.569 28.8989 34.2119 29.0388 34.5691 29.0388C36.117 29.0272 37.4148 27.6978 37.1886 26.3451L37.1053 25.8903L37.653 25.9603C38.4031 26.0652 38.3674 25.867 37.4863 25.1323C36.1646 24.0362 35.3312 23.8029 34.0929 24.1878ZM33.95 25.5288C33.9023 25.692 33.9143 25.692 34.4501 25.4821C34.7834 25.3422 34.9263 25.3306 35.0573 25.4355C35.355 25.6687 35.2359 25.8553 34.6882 26.0069C34.0809 26.1702 34.0571 26.2518 34.3905 26.7999C34.712 27.313 35.1287 27.4646 35.8551 27.3246C36.1646 27.2663 36.4147 27.243 36.4147 27.2896C36.4147 27.4646 35.7241 27.9776 35.2954 28.1059C34.4024 28.3858 32.7831 28.0476 32.4497 27.5112C32.2235 27.1497 32.4735 26.485 33.0808 25.867C33.5928 25.3422 34.0214 25.179 33.95 25.5288Z" fill="#591516"/>
<path d="M41.8804 27.1146C42.0471 27.4644 43.4401 29.4468 43.4401 29.3419C43.4401 29.1086 42.6781 27.8842 42.2376 27.4061C41.9756 27.1146 41.8089 26.9863 41.8804 27.1146Z" fill="#591516"/>
<path d="M36.7721 28.8522C36.141 29.2486 35.4028 29.5052 34.6169 29.5868C33.8192 29.6684 33.712 29.8084 34.3669 29.925C35.5576 30.1466 36.5101 29.8434 37.1054 29.0504C37.5222 28.4907 37.4388 28.4324 36.7721 28.8522Z" fill="#591516"/>
<path d="M37.26 29.7151C37.0337 29.925 36.6051 30.2282 36.3074 30.3798C35.8907 30.5897 35.8073 30.6713 35.9621 30.7296C36.3669 30.8929 37.8077 29.8667 37.7005 29.4819C37.6767 29.3769 37.5338 29.4585 37.26 29.7151Z" fill="#591516"/>
<path d="M32.319 30.0535C32.2833 30.1002 32.2476 30.1701 32.2476 30.2168C32.2476 30.3684 33.3549 30.6716 33.9026 30.6716L34.4503 30.6599L33.974 30.4967C33.0691 30.1701 32.3904 29.9952 32.319 30.0535Z" fill="#591516"/>
<path d="M44.4047 32.526C44.3928 33.1907 44.3452 34.0536 44.2856 34.4501C44.2142 34.8349 44.107 35.6979 44.0355 36.3626C43.964 37.0273 43.8807 37.657 43.8449 37.7619C43.8211 37.8669 43.9164 37.6919 44.0712 37.3771C44.5714 36.3509 44.6905 35.6396 44.6786 33.7621C44.6667 32.7942 44.6072 31.8497 44.5357 31.6631C44.4404 31.3716 44.4166 31.5232 44.4047 32.526Z" fill="#591516"/>
<path d="M27.8897 32.4791C27.1753 33.5519 26.568 35.0912 27.0086 34.6947C27.2705 34.4615 28.735 31.6162 28.6398 31.5229C28.6041 31.4879 28.2707 31.9193 27.8897 32.4791Z" fill="#591516"/>
<path d="M26.9367 32.3278C26.7343 32.5493 25.4365 35.1148 25.1865 35.8028C25.1507 35.8961 25.0317 36.176 24.9245 36.4208C24.6387 37.0855 24.865 36.864 25.6627 35.7212C26.7105 34.2285 27.7464 31.4415 26.9367 32.3278Z" fill="#591516"/>
<path d="M25.4127 33.5752C25.2222 33.9717 24.9841 34.3915 24.865 34.4965C24.615 34.7297 23.8648 36.6188 23.9839 36.7238C24.0196 36.7587 24.1149 36.7004 24.1982 36.5722C24.2697 36.4556 24.5078 36.0941 24.734 35.7675C25.4008 34.788 25.8414 33.7735 25.7937 33.2837L25.758 32.8406L25.4127 33.5752Z" fill="#591516"/>
<path d="M35.1059 35.942C34.9392 36.0003 34.0462 36.3151 33.1056 36.63C31.3553 37.2247 29.8551 37.901 28.9144 38.5191C28.1405 39.0322 27.1284 39.8951 27.1284 40.035C27.1284 40.0934 27.2237 40.07 27.3427 39.9651C27.6047 39.7319 29.605 38.8106 30.5218 38.5074C30.9148 38.3792 31.7958 38.1226 32.4864 37.9594C33.177 37.7844 33.8319 37.6212 33.9391 37.5862C34.1534 37.5395 35.2607 36.3851 35.475 36.0003C35.606 35.7787 35.5346 35.767 35.1059 35.942Z" fill="#591516"/>
<path d="M23.127 36.91C23.0436 37.1082 23.9486 38.3676 24.1629 38.3676C24.2343 38.3676 24.27 38.3326 24.2462 38.2743C24.2224 38.2277 24.0914 37.9595 23.9486 37.6679C23.8057 37.3764 23.6628 37.0499 23.6271 36.9333C23.5437 36.6884 23.2103 36.6651 23.127 36.91Z" fill="#591516"/>
<path d="M22.3762 38.2161C22.8048 38.6592 23.293 39.1956 23.4597 39.4172C23.6383 39.6387 23.8169 39.7903 23.8526 39.7554C23.9717 39.6271 23.4478 38.4376 23.1025 38.0645C22.7929 37.7263 22.1857 37.4348 21.7928 37.4348C21.6856 37.4348 21.9357 37.7729 22.3762 38.2161Z" fill="#591516"/>
<path d="M19.5903 38.135C19.245 38.24 18.9116 38.4615 18.9116 38.5898C18.9116 38.6248 19.3045 38.6598 19.7808 38.6714C21.1263 38.6948 21.8407 39.1962 22.6622 40.7121C23.1861 41.6917 23.3766 41.75 23.2695 40.8987C23.1266 39.6976 22.7575 38.9047 22.1979 38.5432C21.5549 38.1234 20.2928 37.9251 19.5903 38.135Z" fill="#591516"/>
<path d="M33.426 38.5664C33.2712 38.753 33.2831 38.7647 33.4736 38.6131C33.5808 38.5315 33.6761 38.4382 33.6761 38.4149C33.6761 38.3216 33.5808 38.3799 33.426 38.5664Z" fill="#591516"/>
<path d="M19.2095 39.9769C18.6023 40.2568 18.3999 40.49 18.0189 41.3179C17.8403 41.6794 17.626 41.9826 17.5426 41.9826C17.2211 41.9826 17.233 42.2275 17.614 42.9155C17.9474 43.5336 18.0308 43.6152 18.3523 43.6152C18.5547 43.6152 18.8285 43.5103 18.9833 43.3703C19.1262 43.242 19.5548 43.0671 19.9359 42.9855C20.3288 42.9039 20.7455 42.7989 20.8765 42.7523C21.0432 42.6823 21.0075 42.7523 20.7455 42.9972C20.4836 43.242 20.1621 43.382 19.6501 43.4869C18.7928 43.6502 18.6857 43.8834 19.3286 44.1516C19.662 44.2799 19.8644 44.2916 20.305 44.1866C21.2456 43.9884 21.6504 43.417 21.6504 42.2742C21.6504 41.7844 21.0075 40.3034 20.686 40.0352C20.3645 39.7787 19.7096 39.7553 19.2095 39.9769Z" fill="#591516"/>
<path d="M25.9843 41.6333C25.7104 41.7382 25.5199 41.9598 25.6152 42.0531C25.6509 42.0881 25.9009 42.0414 26.1867 41.9481C26.6272 41.7965 26.663 41.7616 26.4606 41.6566C26.3296 41.5983 26.1272 41.5866 25.9843 41.6333Z" fill="#591516"/>
<path d="M28.2227 42.9158C28.2227 43.079 28.2465 43.1373 28.2822 43.0557C28.306 42.9857 28.306 42.8458 28.2822 42.7642C28.2465 42.6942 28.2227 42.7525 28.2227 42.9158Z" fill="#591516"/>
<path d="M22.6756 43.1139C22.6041 43.2771 22.616 43.2888 22.7351 43.1838C22.8185 43.1022 22.8542 43.0089 22.8185 42.9739C22.7828 42.9389 22.7113 42.9973 22.6756 43.1139Z" fill="#591516"/>
<path d="M28.0922 43.4519C28.0922 43.5802 28.1279 43.6152 28.1636 43.5219C28.1994 43.4402 28.1875 43.3353 28.1517 43.3003C28.116 43.2537 28.0803 43.3236 28.0922 43.4519Z" fill="#591516"/>
<path d="M17.6386 45.0959C17.4838 45.1192 17.3647 45.2242 17.3647 45.3291C17.3647 45.4458 17.4243 45.4807 17.5791 45.4224C17.6862 45.3875 17.9363 45.3175 18.1149 45.2825C18.3649 45.2359 18.4125 45.1892 18.2935 45.1192C18.1268 45.0143 18.0791 45.0143 17.6386 45.0959Z" fill="#591516"/>
<path d="M17.6609 45.8779C17.3394 46.0412 17.1489 46.1694 17.2561 46.1694C17.3513 46.1811 17.6966 46.0528 18.03 45.9012C18.3515 45.738 18.5301 45.6097 18.4348 45.6097C18.3396 45.598 17.9943 45.7263 17.6609 45.8779Z" fill="#591516"/>
<path d="M22.0909 46.3679C21.3169 47.2192 20.7335 47.5224 19.519 47.6973C18.1021 47.9072 15.5779 47.7556 14.7206 47.4058C14.3991 47.2775 14.4587 47.5457 14.792 47.7556C15.3517 48.1171 18.6498 48.292 20.0429 48.0355C20.9121 47.8839 21.2812 47.6973 21.8289 47.1725C22.2099 46.7877 22.7934 45.8665 22.6981 45.7732C22.6743 45.7499 22.4004 46.0181 22.0909 46.3679Z" fill="#591516"/>
<path d="M17.8525 46.239C17.6382 46.3323 17.3167 46.379 17.1381 46.344C16.9 46.2973 16.8642 46.309 17.0071 46.4023C17.2572 46.5772 17.5905 46.5422 18.1383 46.2973C18.6979 46.0408 18.4478 45.9941 17.8525 46.239Z" fill="#591516"/>
<path d="M18.4113 46.4955C18.4946 46.5306 18.6018 46.5189 18.6375 46.4838C18.6852 46.4487 18.6137 46.4136 18.4827 46.4253C18.3517 46.4253 18.316 46.4604 18.4113 46.4955Z" fill="#591516"/>
<path d="M19.0905 46.6471C18.9595 46.7054 18.4237 46.7521 17.8998 46.7637C16.4829 46.7987 16.1019 46.9736 17.4235 46.9853C18.4951 46.9969 19.3167 46.857 19.4477 46.6471C19.531 46.5072 19.412 46.5072 19.0905 46.6471Z" fill="#591516"/>
<path d="M46.5003 42.531C46.4646 42.5893 46.417 42.9158 46.3693 43.2656L46.2979 43.907L46.4884 43.5105C46.7385 42.9741 46.8338 42.4493 46.679 42.4493C46.6075 42.4493 46.5241 42.4843 46.5003 42.531Z" fill="#591516"/>
<path d="M46.4875 44.7345C46.3684 44.8978 46.0469 45.7257 45.773 46.5653C45.4873 47.4166 45.0706 48.4661 44.8443 48.9209C44.118 50.3436 44.2252 50.3669 45.1658 48.9792C46.166 47.5099 47.1304 45.7374 47.1304 45.3642C47.1304 45.1427 46.8208 44.4313 46.7256 44.4313C46.7018 44.4313 46.5946 44.5713 46.4875 44.7345Z" fill="#591516"/>
<path d="M46.9402 47.8719C46.8926 48.0002 46.7854 48.2918 46.6902 48.5133C46.5949 48.7349 46.3568 49.3646 46.1663 49.901C45.9758 50.4374 45.6066 51.277 45.3328 51.7668C45.047 52.2682 44.9161 52.5831 45.047 52.4781C45.5828 52.0467 47.6189 49.1547 47.607 48.8398C47.5951 48.7582 47.4641 48.455 47.3093 48.1635C47.0712 47.7087 47.0235 47.6737 46.9402 47.8719Z" fill="#591516"/>
<path d="M83.6012 49.5392C83.6369 49.8657 83.7679 50.3088 83.8751 50.5187C84.1727 51.0785 85.6372 52.9793 85.6849 52.851C85.7444 52.6761 83.8751 49.0494 83.6964 49.0028C83.5655 48.9561 83.5417 49.0611 83.6012 49.5392Z" fill="#591516"/>
<path d="M47.4999 49.6793C47.369 49.9709 47.2499 50.2741 47.2499 50.3557C47.2499 50.6705 46.4045 52.6413 45.9283 53.4459C45.2496 54.5887 44.0708 56.0697 42.9039 57.2241C42.3801 57.7606 41.9752 58.192 42.0229 58.192C42.1657 58.192 45.8568 55.3933 46.214 55.0085C46.3212 54.8919 46.4164 54.8452 46.4164 54.9269C46.4164 55.1251 47.0832 54.6353 47.8333 53.8774C48.1905 53.5275 48.4406 53.3176 48.381 53.4109C48.1905 53.7491 48.5358 53.3643 49.1431 52.5363C49.4765 52.0932 49.7503 51.6617 49.7503 51.5801C49.7503 51.5101 49.5598 51.2419 49.3217 51.0087L48.9049 50.5656L48.5477 51.2536C48.1429 52.0349 47.2499 53.5275 47.1785 53.5275C47.107 53.5275 47.2856 53.1427 47.6785 52.4197C48.2382 51.4168 48.5835 50.484 48.512 50.2157C48.4763 50.0758 48.2858 49.7843 48.0953 49.5627L47.75 49.1546L47.4999 49.6793Z" fill="#591516"/>
<path d="M49.8572 51.9538C49.8334 52.7001 48.6189 55.5105 47.845 56.6183C47.6664 56.8749 47.4282 57.2713 47.3211 57.4929C47.1306 57.8777 47.1544 57.8661 47.6664 57.318C48.3689 56.5717 49.7619 54.5309 50.3097 53.4348L50.7502 52.5835L50.3097 52.1521C49.9286 51.7906 49.8691 51.7556 49.8572 51.9538Z" fill="#591516"/>
<path d="M50.2493 54.6001C49.773 55.498 49.4039 56.256 49.4158 56.2793C49.5349 56.3842 51.7733 53.5389 51.7733 53.2823C51.7733 53.0958 51.5471 52.9442 51.2613 52.9442C51.178 52.9442 50.7255 53.6905 50.2493 54.6001Z" fill="#591516"/>
<path d="M8.1527 82L4.41406 77.0398H3.57315V82H1.11293V70.3636H3.57315V75.0114H4.06747L7.93111 70.3636H10.9936L6.45384 75.7614L11.2038 82H8.1527ZM11.8842 82L11.8729 80.0795H12.1626C12.3672 80.0795 12.5433 80.0303 12.6911 79.9318C12.8426 79.8295 12.9676 79.6648 13.0661 79.4375C13.1645 79.2102 13.2422 78.9091 13.299 78.5341C13.3558 78.1553 13.3937 77.6894 13.4126 77.1364L13.5547 73.2727H20.1911V82H17.8842V75.1761H15.7308L15.5945 77.8409C15.5604 78.572 15.4714 79.2008 15.3274 79.7273C15.1873 80.2538 14.9922 80.6856 14.7422 81.0227C14.4922 81.3561 14.1911 81.6023 13.8388 81.7614C13.4865 81.9205 13.0774 82 12.6115 82H11.8842ZM23.2493 85.2727C22.9425 85.2727 22.6546 85.2481 22.3857 85.1989C22.1205 85.1534 21.9008 85.0947 21.7266 85.0227L22.272 83.2159C22.5561 83.303 22.8118 83.3504 23.0391 83.358C23.2701 83.3655 23.469 83.3125 23.6357 83.1989C23.8061 83.0852 23.9444 82.892 24.0504 82.6193L24.1925 82.25L21.0618 73.2727H23.6072L25.4141 79.6818H25.505L27.3288 73.2727H29.8913L26.4993 82.9432C26.3364 83.4129 26.1148 83.822 25.8345 84.1705C25.558 84.5227 25.2076 84.7936 24.7834 84.983C24.3591 85.1761 23.8478 85.2727 23.2493 85.2727ZM38.3857 70.0682L39.1243 71.6477C38.8781 71.8523 38.6054 72.0038 38.3061 72.1023C38.0069 72.197 37.6489 72.2595 37.2322 72.2898C36.8194 72.3201 36.3156 72.3409 35.7209 72.3523C35.0466 72.3598 34.4974 72.4678 34.0732 72.6761C33.6489 72.8845 33.3269 73.2121 33.1072 73.6591C32.8875 74.1023 32.7436 74.6818 32.6754 75.3977H32.7607C33.022 74.8636 33.3894 74.4508 33.8629 74.1591C34.3402 73.8674 34.9292 73.7216 35.63 73.7216C36.3724 73.7216 37.022 73.8845 37.5788 74.2102C38.1394 74.536 38.575 75.0038 38.8857 75.6136C39.1963 76.2235 39.3516 76.9545 39.3516 77.8068C39.3516 78.6932 39.1773 79.464 38.8288 80.1193C38.4841 80.7708 37.9936 81.2765 37.3572 81.6364C36.7209 81.9924 35.9633 82.1705 35.0845 82.1705C34.2019 82.1705 33.4406 81.9848 32.8004 81.6136C32.1641 81.2424 31.6716 80.6951 31.3232 79.9716C30.9785 79.2481 30.8061 78.358 30.8061 77.3011V76.5852C30.8061 74.483 31.2152 72.9242 32.0334 71.9091C32.8516 70.8939 34.0542 70.3788 35.6413 70.3636C36.0732 70.3561 36.4633 70.3542 36.8118 70.358C37.1603 70.3617 37.4652 70.3447 37.7266 70.3068C37.9917 70.2689 38.2114 70.1894 38.3857 70.0682ZM35.0959 80.2955C35.4671 80.2955 35.7853 80.1989 36.0504 80.0057C36.3194 79.8125 36.5258 79.536 36.6697 79.1761C36.8175 78.8163 36.8913 78.3864 36.8913 77.8864C36.8913 77.3902 36.8175 76.9697 36.6697 76.625C36.5258 76.2765 36.3194 76.0114 36.0504 75.8295C35.7815 75.6477 35.4595 75.5568 35.0845 75.5568C34.8042 75.5568 34.5523 75.608 34.3288 75.7102C34.1054 75.8125 33.9141 75.964 33.755 76.1648C33.5997 76.3617 33.4785 76.6061 33.3913 76.8977C33.308 77.1856 33.2663 77.5152 33.2663 77.8864C33.2663 78.6326 33.4273 79.2216 33.7493 79.6534C34.075 80.0814 34.5239 80.2955 35.0959 80.2955ZM49.1158 80.75H46.9226L44.6271 77.3409V77.2273H46.9339L49.1158 80.75ZM49.1158 73.7727L46.9339 77.2955H44.6271V77.1818L46.9226 73.7727H49.1158ZM52.8544 80.75H50.6612L48.3658 77.3409V77.2273H50.6726L52.8544 80.75ZM52.8544 73.7727L50.6726 77.2955H48.3658V77.1818L50.6612 73.7727H52.8544ZM53.4666 72.392V70.3636H63.0234V72.392H59.4609V82H57.0291V72.392H53.4666ZM63.6456 85.2727V73.2727H66.032V74.7386H66.1399C66.246 74.5038 66.3994 74.2652 66.6001 74.0227C66.8047 73.7765 67.0698 73.572 67.3956 73.4091C67.7251 73.2424 68.1342 73.1591 68.6229 73.1591C69.2592 73.1591 69.8464 73.3258 70.3842 73.6591C70.9221 73.9886 71.352 74.4867 71.674 75.1534C71.996 75.8163 72.157 76.6477 72.157 77.6477C72.157 78.6212 71.9998 79.4432 71.6854 80.1136C71.3748 80.7803 70.9505 81.286 70.4126 81.6307C69.8786 81.9716 69.2801 82.142 68.6172 82.142C68.1475 82.142 67.7479 82.0644 67.4183 81.9091C67.0926 81.7538 66.8255 81.5587 66.6172 81.3239C66.4089 81.0852 66.2498 80.8447 66.1399 80.6023H66.0661V85.2727H63.6456ZM66.0149 77.6364C66.0149 78.1553 66.0869 78.608 66.2308 78.9943C66.3748 79.3807 66.5831 79.6818 66.8558 79.8977C67.1286 80.1098 67.46 80.2159 67.8501 80.2159C68.2441 80.2159 68.5774 80.108 68.8501 79.892C69.1229 79.6723 69.3293 79.3693 69.4695 78.983C69.6134 78.5928 69.6854 78.1439 69.6854 77.6364C69.6854 77.1326 69.6153 76.6894 69.4751 76.3068C69.335 75.9242 69.1286 75.625 68.8558 75.4091C68.5831 75.1932 68.2479 75.0852 67.8501 75.0852C67.4562 75.0852 67.1229 75.1894 66.8501 75.3977C66.5812 75.6061 66.3748 75.9015 66.2308 76.2841C66.0869 76.6667 66.0149 77.1174 66.0149 77.6364ZM76.0831 78.8068L79.2251 73.2727H81.6115V82H79.3047V76.4489L76.174 82H73.7706V73.2727H76.0831V78.8068ZM87.255 82V73.2727H89.6754V76.6591H90.3572L92.7322 73.2727H95.5732L92.4879 77.6023L95.6072 82H92.7322L90.5788 78.9034H89.6754V82H87.255ZM100.214 82.1705C99.3312 82.1705 98.5679 81.983 97.924 81.608C97.2839 81.2292 96.7895 80.7027 96.4411 80.0284C96.0926 79.3504 95.9183 78.5644 95.9183 77.6705C95.9183 76.7689 96.0926 75.9811 96.4411 75.3068C96.7895 74.6288 97.2839 74.1023 97.924 73.7273C98.5679 73.3485 99.3312 73.1591 100.214 73.1591C101.096 73.1591 101.858 73.3485 102.498 73.7273C103.142 74.1023 103.638 74.6288 103.987 75.3068C104.335 75.9811 104.509 76.7689 104.509 77.6705C104.509 78.5644 104.335 79.3504 103.987 80.0284C103.638 80.7027 103.142 81.2292 102.498 81.608C101.858 81.983 101.096 82.1705 100.214 82.1705ZM100.225 80.2955C100.627 80.2955 100.962 80.1818 101.231 79.9545C101.5 79.7235 101.702 79.4091 101.839 79.0114C101.979 78.6136 102.049 78.161 102.049 77.6534C102.049 77.1458 101.979 76.6932 101.839 76.2955C101.702 75.8977 101.5 75.5833 101.231 75.3523C100.962 75.1212 100.627 75.0057 100.225 75.0057C99.8198 75.0057 99.4789 75.1212 99.2024 75.3523C98.9297 75.5833 98.7232 75.8977 98.5831 76.2955C98.4467 76.6932 98.3786 77.1458 98.3786 77.6534C98.3786 78.161 98.4467 78.6136 98.5831 79.0114C98.7232 79.4091 98.9297 79.7235 99.2024 79.9545C99.4789 80.1818 99.8198 80.2955 100.225 80.2955ZM112.157 76.6705V78.5739H107.6V76.6705H112.157ZM108.396 73.2727V82H106.083V73.2727H108.396ZM113.674 73.2727V82H111.379V73.2727H113.674ZM120.665 82V75.1705H119.029C118.586 75.1705 118.249 75.2727 118.018 75.4773C117.787 75.6818 117.673 75.9242 117.677 76.2045C117.673 76.4886 117.783 76.7292 118.006 76.9261C118.234 77.1193 118.567 77.2159 119.006 77.2159H121.472V78.8523H119.006C118.26 78.8523 117.614 78.7386 117.069 78.5114C116.523 78.2841 116.103 77.9678 115.808 77.5625C115.512 77.1534 115.366 76.678 115.37 76.1364C115.366 75.5682 115.512 75.0701 115.808 74.642C116.103 74.2102 116.525 73.875 117.075 73.6364C117.628 73.3939 118.279 73.2727 119.029 73.2727H122.921V82H120.665ZM115.12 82L117.546 77.4545H119.859L117.438 82H115.12ZM124.643 80.75L126.825 77.2273H129.131V77.3409L126.836 80.75H124.643ZM124.643 73.7727H126.836L129.131 77.1818V77.2955H126.825L124.643 73.7727ZM128.438 80.75L130.62 77.2273H132.927V77.3409L130.631 80.75H128.438ZM128.438 73.7727H130.631L132.927 77.1818V77.2955H130.62L128.438 73.7727Z" fill="#591516"/>
</svg>
